<?xml version="1.0" encoding="UTF-8" standalone="no"?>
<!DOCTYPE svg PUBLIC "-//W3C//DTD SVG 1.1//EN"
 "http://www.w3.org/Graphics/SVG/1.1/DTD/svg11.dtd">
<!-- Generated by graphviz version 14.0.1 (20251006.0113)
 -->
<!-- Pages: 1 -->
<svg width="665pt" height="998pt"
 viewBox="0.00 0.00 665.00 998.00" xmlns="http://www.w3.org/2000/svg" xmlns:xlink="http://www.w3.org/1999/xlink">
<g id="graph0" class="graph" transform="scale(1 1) rotate(0) translate(4 993.75)">
<polygon fill="white" stroke="none" points="-4,4 -4,-993.75 660.88,-993.75 660.88,4 -4,4"/>
<g id="clust1" class="cluster">
<title>cluster_preprocessing</title>
<path fill="lightyellow" stroke="black" d="M235.88,-577C235.88,-577 388.88,-577 388.88,-577 394.88,-577 400.88,-583 400.88,-589 400.88,-589 400.88,-891.75 400.88,-891.75 400.88,-897.75 394.88,-903.75 388.88,-903.75 388.88,-903.75 235.88,-903.75 235.88,-903.75 229.88,-903.75 223.88,-897.75 223.88,-891.75 223.88,-891.75 223.88,-589 223.88,-589 223.88,-583 229.88,-577 235.88,-577"/>
<text xml:space="preserve" text-anchor="middle" x="312.38" y="-888.35" font-family="Comic Sans MS" font-size="12.00">ARM64 Image Preprocessing</text>
</g>
<g id="clust2" class="cluster">
<title>cluster_mediapipe</title>
<path fill="#e6f3ff" stroke="black" d="M238.88,-157C238.88,-157 384.88,-157 384.88,-157 390.88,-157 396.88,-163 396.88,-169 396.88,-169 396.88,-514.75 396.88,-514.75 396.88,-520.75 390.88,-526.75 384.88,-526.75 384.88,-526.75 238.88,-526.75 238.88,-526.75 232.88,-526.75 226.88,-520.75 226.88,-514.75 226.88,-514.75 226.88,-169 226.88,-169 226.88,-163 232.88,-157 238.88,-157"/>
<text xml:space="preserve" text-anchor="middle" x="311.88" y="-511.35" font-family="Comic Sans MS" font-size="12.00">MediaPipe Tasks GenAI</text>
</g>
<g id="clust3" class="cluster">
<title>cluster_backend</title>
<path fill="#ffe6e6" stroke="black" d="M164.88,-8C164.88,-8 636.88,-8 636.88,-8 642.88,-8 648.88,-14 648.88,-20 648.88,-20 648.88,-94.75 648.88,-94.75 648.88,-100.75 642.88,-106.75 636.88,-106.75 636.88,-106.75 164.88,-106.75 164.88,-106.75 158.88,-106.75 152.88,-100.75 152.88,-94.75 152.88,-94.75 152.88,-20 152.88,-20 152.88,-14 158.88,-8 164.88,-8"/>
<text xml:space="preserve" text-anchor="middle" x="400.88" y="-91.35" font-family="Comic Sans MS" font-size="12.00">ARM Compute Backend</text>
</g>
<!-- input -->
<g id="node1" class="node">
<title>input</title>
<path fill="lightgreen" stroke="black" d="M350.62,-989.75C350.62,-989.75 273.12,-989.75 273.12,-989.75 267.12,-989.75 261.12,-983.75 261.12,-977.75 261.12,-977.75 261.12,-960.75 261.12,-960.75 261.12,-954.75 267.12,-948.75 273.12,-948.75 273.12,-948.75 350.62,-948.75 350.62,-948.75 356.62,-948.75 362.62,-954.75 362.62,-960.75 362.62,-960.75 362.62,-977.75 362.62,-977.75 362.62,-983.75 356.62,-989.75 350.62,-989.75"/>
<text xml:space="preserve" text-anchor="middle" x="311.88" y="-975.3" font-family="Comic Sans MS" font-size="11.00">UIImage</text>
<text xml:space="preserve" text-anchor="middle" x="311.88" y="-958.8" font-family="Comic Sans MS" font-size="11.00">(RGBA, up to 4K)</text>
</g>
<!-- vimage -->
<g id="node2" class="node">
<title>vimage</title>
<path fill="#ffe4b5" stroke="black" d="M377.25,-870.5C377.25,-870.5 246.5,-870.5 246.5,-870.5 240.5,-870.5 234.5,-864.5 234.5,-858.5 234.5,-858.5 234.5,-825 234.5,-825 234.5,-819 240.5,-813 246.5,-813 246.5,-813 377.25,-813 377.25,-813 383.25,-813 389.25,-819 389.25,-825 389.25,-825 389.25,-858.5 389.25,-858.5 389.25,-864.5 383.25,-870.5 377.25,-870.5"/>
<text xml:space="preserve" text-anchor="middle" x="311.88" y="-856.05" font-family="Comic Sans MS" font-size="11.00">vImage (Accelerate)</text>
<text xml:space="preserve" text-anchor="middle" x="311.88" y="-839.55" font-family="Comic Sans MS" font-size="11.00">SIMD&#45;optimized scaling</text>
<text xml:space="preserve" text-anchor="middle" x="311.88" y="-823.05" font-family="Comic Sans MS" font-size="11.00">ARMv8 NEON instructions</text>
</g>
<!-- input&#45;&gt;vimage -->
<g id="edge1" class="edge">
<title>input&#45;&gt;vimage</title>
<path fill="none" stroke="black" d="M311.88,-948.48C311.88,-948.48 311.88,-882.12 311.88,-882.12"/>
<polygon fill="black" stroke="black" points="315.38,-882.12 311.88,-872.12 308.38,-882.12 315.38,-882.12"/>
</g>
<!-- resize -->
<g id="node3" class="node">
<title>resize</title>
<path fill="#ffe4b5" stroke="black" d="M355.88,-740C355.88,-740 267.88,-740 267.88,-740 261.88,-740 255.88,-734 255.88,-728 255.88,-728 255.88,-711 255.88,-711 255.88,-705 261.88,-699 267.88,-699 267.88,-699 355.88,-699 355.88,-699 361.88,-699 367.88,-705 367.88,-711 367.88,-711 367.88,-728 367.88,-728 367.88,-734 361.88,-740 355.88,-740"/>
<text xml:space="preserve" text-anchor="middle" x="311.88" y="-725.55" font-family="Comic Sans MS" font-size="11.00">Resize to 224×224</text>
<text xml:space="preserve" text-anchor="middle" x="311.88" y="-709.05" font-family="Comic Sans MS" font-size="11.00">~0.5ms on A17 Pro</text>
</g>
<!-- vimage&#45;&gt;resize -->
<g id="edge2" class="edge">
<title>vimage&#45;&gt;resize</title>
<path fill="none" stroke="black" d="M311.88,-812.78C311.88,-812.78 311.88,-751.75 311.88,-751.75"/>
<polygon fill="black" stroke="black" points="315.38,-751.75 311.88,-741.75 308.38,-751.75 315.38,-751.75"/>
</g>
<!-- normalize -->
<g id="node4" class="node">
<title>normalize</title>
<path fill="#ffe4b5" stroke="black" d="M377.25,-626C377.25,-626 246.5,-626 246.5,-626 240.5,-626 234.5,-620 234.5,-614 234.5,-614 234.5,-597 234.5,-597 234.5,-591 240.5,-585 246.5,-585 246.5,-585 377.25,-585 377.25,-585 383.25,-585 389.25,-591 389.25,-597 389.25,-597 389.25,-614 389.25,-614 389.25,-620 383.25,-626 377.25,-626"/>
<text xml:space="preserve" text-anchor="middle" x="311.88" y="-611.55" font-family="Comic Sans MS" font-size="11.00">Normalize [&#45;1, 1]</text>
<text xml:space="preserve" text-anchor="middle" x="311.88" y="-595.05" font-family="Comic Sans MS" font-size="11.00">FP16 → INT8 quantization</text>
</g>
<!-- resize&#45;&gt;normalize -->
<g id="edge3" class="edge">
<title>resize&#45;&gt;normalize</title>
<path fill="none" stroke="black" d="M311.88,-698.59C311.88,-698.59 311.88,-637.79 311.88,-637.79"/>
<polygon fill="black" stroke="black" points="315.38,-637.79 311.88,-627.79 308.38,-637.79 315.38,-637.79"/>
</g>
<!-- vision_enc -->
<g id="node5" class="node">
<title>vision_enc</title>
<path fill="#b0e0e6" stroke="black" d="M373.5,-493.5C373.5,-493.5 250.25,-493.5 250.25,-493.5 244.25,-493.5 238.25,-487.5 238.25,-481.5 238.25,-481.5 238.25,-448 238.25,-448 238.25,-442 244.25,-436 250.25,-436 250.25,-436 373.5,-436 373.5,-436 379.5,-436 385.5,-442 385.5,-448 385.5,-448 385.5,-481.5 385.5,-481.5 385.5,-487.5 379.5,-493.5 373.5,-493.5"/>
<text xml:space="preserve" text-anchor="middle" x="311.88" y="-479.05" font-family="Comic Sans MS" font-size="11.00">Vision Encoder</text>
<text xml:space="preserve" text-anchor="middle" x="311.88" y="-462.55" font-family="Comic Sans MS" font-size="11.00">(TFLite, INT4 quantized)</text>
<text xml:space="preserve" text-anchor="middle" x="311.88" y="-446.05" font-family="Comic Sans MS" font-size="11.00">KleidiAI accelerated</text>
</g>
<!-- normalize&#45;&gt;vision_enc -->
<g id="edge4" class="edge">
<title>normalize&#45;&gt;vision_enc</title>
<path fill="none" stroke="black" d="M311.88,-584.73C311.88,-584.73 311.88,-505.44 311.88,-505.44"/>
<polygon fill="black" stroke="black" points="315.38,-505.44 311.88,-495.44 308.38,-505.44 315.38,-505.44"/>
<text xml:space="preserve" text-anchor="middle" x="357.25" y="-539.5" font-family="Comic Sans MS" font-size="10.00">[224×224×3] tensor</text>
</g>
<!-- vision_adapt -->
<g id="node6" class="node">
<title>vision_adapt</title>
<path fill="#b0e0e6" stroke="black" d="M335.5,-349.75C335.5,-349.75 254.25,-349.75 254.25,-349.75 248.25,-349.75 242.25,-343.75 242.25,-337.75 242.25,-337.75 242.25,-320.75 242.25,-320.75 242.25,-314.75 248.25,-308.75 254.25,-308.75 254.25,-308.75 335.5,-308.75 335.5,-308.75 341.5,-308.75 347.5,-314.75 347.5,-320.75 347.5,-320.75 347.5,-337.75 347.5,-337.75 347.5,-343.75 341.5,-349.75 335.5,-349.75"/>
<text xml:space="preserve" text-anchor="middle" x="294.88" y="-335.3" font-family="Comic Sans MS" font-size="11.00">Vision Adapter</text>
<text xml:space="preserve" text-anchor="middle" x="294.88" y="-318.8" font-family="Comic Sans MS" font-size="11.00">(Cross&#45;attention)</text>
</g>
<!-- vision_enc&#45;&gt;vision_adapt -->
<g id="edge5" class="edge">
<title>vision_enc&#45;&gt;vision_adapt</title>
<path fill="none" stroke="black" d="M294.88,-435.68C294.88,-435.68 294.88,-361.41 294.88,-361.41"/>
<polygon fill="black" stroke="black" points="298.38,-361.41 294.88,-351.41 291.38,-361.41 298.38,-361.41"/>
<text xml:space="preserve" text-anchor="middle" x="340.88" y="-390.5" font-family="Comic Sans MS" font-size="10.00">768&#45;dim embeddings</text>
</g>
<!-- kleidiai -->
<g id="node8" class="node">
<title>kleidiai</title>
<path fill="#ffb6c1" stroke="black" d="M628.38,-73.5C628.38,-73.5 531.38,-73.5 531.38,-73.5 525.38,-73.5 519.38,-67.5 519.38,-61.5 519.38,-61.5 519.38,-28 519.38,-28 519.38,-22 525.38,-16 531.38,-16 531.38,-16 628.38,-16 628.38,-16 634.38,-16 640.38,-22 640.38,-28 640.38,-28 640.38,-61.5 640.38,-61.5 640.38,-67.5 634.38,-73.5 628.38,-73.5"/>
<text xml:space="preserve" text-anchor="middle" x="579.88" y="-59.05" font-family="Comic Sans MS" font-size="11.00">KleidiAI</text>
<text xml:space="preserve" text-anchor="middle" x="579.88" y="-42.55" font-family="Comic Sans MS" font-size="11.00">ARM Kleidi library</text>
<text xml:space="preserve" text-anchor="middle" x="579.88" y="-26.05" font-family="Comic Sans MS" font-size="11.00">Matmul optimization</text>
</g>
<!-- vision_enc&#45;&gt;kleidiai -->
<g id="edge8" class="edge">
<title>vision_enc&#45;&gt;kleidiai</title>
<path fill="none" stroke="red" stroke-dasharray="5,2" d="M385.82,-465C465.14,-465 579.88,-465 579.88,-465 579.88,-465 579.88,-85.48 579.88,-85.48"/>
<polygon fill="red" stroke="red" points="583.38,-85.48 579.88,-75.48 576.38,-85.48 583.38,-85.48"/>
<text xml:space="preserve" text-anchor="middle" x="526.38" y="-263.25" font-family="Comic Sans MS" font-size="10.00">matmul</text>
</g>
<!-- gemma_llm -->
<g id="node7" class="node">
<title>gemma_llm</title>
<path fill="#b0e0e6" stroke="black" d="M354.62,-222.5C354.62,-222.5 247.12,-222.5 247.12,-222.5 241.12,-222.5 235.12,-216.5 235.12,-210.5 235.12,-210.5 235.12,-177 235.12,-177 235.12,-171 241.12,-165 247.12,-165 247.12,-165 354.62,-165 354.62,-165 360.62,-165 366.62,-171 366.62,-177 366.62,-177 366.62,-210.5 366.62,-210.5 366.62,-216.5 360.62,-222.5 354.62,-222.5"/>
<text xml:space="preserve" text-anchor="middle" x="300.88" y="-208.05" font-family="Comic Sans MS" font-size="11.00">Gemma 3N LLM</text>
<text xml:space="preserve" text-anchor="middle" x="300.88" y="-191.55" font-family="Comic Sans MS" font-size="11.00">(2B/4B params, INT4)</text>
<text xml:space="preserve" text-anchor="middle" x="300.88" y="-175.05" font-family="Comic Sans MS" font-size="11.00">XNNPACK + SME2</text>
</g>
<!-- vision_adapt&#45;&gt;gemma_llm -->
<g id="edge6" class="edge">
<title>vision_adapt&#45;&gt;gemma_llm</title>
<path fill="none" stroke="black" d="M294.88,-308.38C294.88,-308.38 294.88,-234.46 294.88,-234.46"/>
<polygon fill="black" stroke="black" points="298.38,-234.46 294.88,-224.46 291.38,-234.46 298.38,-234.46"/>
<text xml:space="preserve" text-anchor="middle" x="339.25" y="-263.25" font-family="Comic Sans MS" font-size="10.00">Multimodal tokens</text>
</g>
<!-- xnnpack -->
<g id="node9" class="node">
<title>xnnpack</title>
<path fill="#ffb6c1" stroke="black" d="M449.38,-73.5C449.38,-73.5 352.38,-73.5 352.38,-73.5 346.38,-73.5 340.38,-67.5 340.38,-61.5 340.38,-61.5 340.38,-28 340.38,-28 340.38,-22 346.38,-16 352.38,-16 352.38,-16 449.38,-16 449.38,-16 455.38,-16 461.38,-22 461.38,-28 461.38,-28 461.38,-61.5 461.38,-61.5 461.38,-67.5 455.38,-73.5 449.38,-73.5"/>
<text xml:space="preserve" text-anchor="middle" x="400.88" y="-59.05" font-family="Comic Sans MS" font-size="11.00">XNNPACK</text>
<text xml:space="preserve" text-anchor="middle" x="400.88" y="-42.55" font-family="Comic Sans MS" font-size="11.00">Quantized ops</text>
<text xml:space="preserve" text-anchor="middle" x="400.88" y="-26.05" font-family="Comic Sans MS" font-size="11.00">INT4/INT8 kernels</text>
</g>
<!-- gemma_llm&#45;&gt;xnnpack -->
<g id="edge9" class="edge">
<title>gemma_llm&#45;&gt;xnnpack</title>
<path fill="none" stroke="red" stroke-dasharray="5,2" d="M353.5,-164.67C353.5,-164.67 353.5,-85.27 353.5,-85.27"/>
<polygon fill="red" stroke="red" points="357,-85.27 353.5,-75.27 350,-85.27 357,-85.27"/>
<text xml:space="preserve" text-anchor="middle" x="415.38" y="-119.5" font-family="Comic Sans MS" font-size="10.00">quantized ops</text>
</g>
<!-- sme2 -->
<g id="node10" class="node">
<title>sme2</title>
<path fill="#ffb6c1" stroke="black" d="M270.38,-73.5C270.38,-73.5 173.38,-73.5 173.38,-73.5 167.38,-73.5 161.38,-67.5 161.38,-61.5 161.38,-61.5 161.38,-28 161.38,-28 161.38,-22 167.38,-16 173.38,-16 173.38,-16 270.38,-16 270.38,-16 276.38,-16 282.38,-22 282.38,-28 282.38,-28 282.38,-61.5 282.38,-61.5 282.38,-67.5 276.38,-73.5 270.38,-73.5"/>
<text xml:space="preserve" text-anchor="middle" x="221.88" y="-59.05" font-family="Comic Sans MS" font-size="11.00">SME2 Compatible</text>
<text xml:space="preserve" text-anchor="middle" x="221.88" y="-42.55" font-family="Comic Sans MS" font-size="11.00">Scalable Matrix Ext</text>
<text xml:space="preserve" text-anchor="middle" x="221.88" y="-26.05" font-family="Comic Sans MS" font-size="11.00">(A&#45;series ready)</text>
</g>
<!-- gemma_llm&#45;&gt;sme2 -->
<g id="edge10" class="edge">
<title>gemma_llm&#45;&gt;sme2</title>
<path fill="none" stroke="red" stroke-dasharray="5,2" d="M258.75,-164.67C258.75,-164.67 258.75,-85.27 258.75,-85.27"/>
<polygon fill="red" stroke="red" points="262.25,-85.27 258.75,-75.27 255.25,-85.27 262.25,-85.27"/>
<text xml:space="preserve" text-anchor="middle" x="262.62" y="-119.5" font-family="Comic Sans MS" font-size="10.00">matrix ext</text>
</g>
<!-- latex_output -->
<g id="node11" class="node">
<title>latex_output</title>
<path fill="lightgreen" stroke="black" d="M91.75,-65.25C91.75,-65.25 12,-65.25 12,-65.25 6,-65.25 0,-59.25 0,-53.25 0,-53.25 0,-36.25 0,-36.25 0,-30.25 6,-24.25 12,-24.25 12,-24.25 91.75,-24.25 91.75,-24.25 97.75,-24.25 103.75,-30.25 103.75,-36.25 103.75,-36.25 103.75,-53.25 103.75,-53.25 103.75,-59.25 97.75,-65.25 91.75,-65.25"/>
<text xml:space="preserve" text-anchor="middle" x="51.88" y="-50.8" font-family="Comic Sans MS" font-size="11.00">LaTeX String</text>
<text xml:space="preserve" text-anchor="middle" x="51.88" y="-34.3" font-family="Comic Sans MS" font-size="11.00">~100&#45;500 tokens</text>
</g>
<!-- gemma_llm&#45;&gt;latex_output -->
<g id="edge7" class="edge">
<title>gemma_llm&#45;&gt;latex_output</title>
<path fill="none" stroke="black" d="M234.8,-194C161.03,-194 51.88,-194 51.88,-194 51.88,-194 51.88,-77.02 51.88,-77.02"/>
<polygon fill="black" stroke="black" points="55.38,-77.02 51.88,-67.02 48.38,-77.02 55.38,-77.02"/>
<text xml:space="preserve" text-anchor="middle" x="89" y="-119.5" font-family="Comic Sans MS" font-size="10.00">~2&#45;8s inference</text>
</g>
</g>
</svg>
