<?xml version="1.0" encoding="UTF-8" standalone="no"?>
<!DOCTYPE svg PUBLIC "-//W3C//DTD SVG 1.1//EN"
 "http://www.w3.org/Graphics/SVG/1.1/DTD/svg11.dtd">
<!-- Generated by graphviz version 14.0.1 (20251006.0113)
 -->
<!-- Title: AI_Pipeline Pages: 1 -->
<svg width="14821pt" height="775pt"
 viewBox="0.00 0.00 14821.00 775.00" xmlns="http://www.w3.org/2000/svg" xmlns:xlink="http://www.w3.org/1999/xlink">
<g id="graph0" class="graph" transform="scale(4.16667 4.16667) rotate(0) translate(4 182)">
<title>AI_Pipeline</title>
<polygon fill="white" stroke="none" points="-4,4 -4,-182 3553.15,-182 3553.15,4 -4,4"/>
<g id="clust1" class="cluster">
<title>cluster_input</title>
<path fill="white" stroke="#0066cc" stroke-dasharray="5,2" d="M20,-17C20,-17 358.2,-17 358.2,-17 364.2,-17 370.2,-23 370.2,-29 370.2,-29 370.2,-158 370.2,-158 370.2,-164 364.2,-170 358.2,-170 358.2,-170 20,-170 20,-170 14,-170 8,-164 8,-158 8,-158 8,-29 8,-29 8,-23 14,-17 20,-17"/>
<text xml:space="preserve" text-anchor="middle" x="189.1" y="-156.5" font-family="Comic Sans MS" font-size="10.00" fill="#2c3e50">1. Image Input</text>
</g>
<g id="clust2" class="cluster">
<title>cluster_arm</title>
<path fill="white" stroke="#ff6b35" stroke-dasharray="5,2" d="M509.2,-8C509.2,-8 1133.25,-8 1133.25,-8 1139.25,-8 1145.25,-14 1145.25,-20 1145.25,-20 1145.25,-104 1145.25,-104 1145.25,-110 1139.25,-116 1133.25,-116 1133.25,-116 509.2,-116 509.2,-116 503.2,-116 497.2,-110 497.2,-104 497.2,-104 497.2,-20 497.2,-20 497.2,-14 503.2,-8 509.2,-8"/>
<text xml:space="preserve" text-anchor="middle" x="821.23" y="-102.5" font-family="Comic Sans MS" font-size="10.00" fill="#2c3e50">2. ARM64 Preprocessing</text>
</g>
<g id="clust3" class="cluster">
<title>cluster_vision</title>
<path fill="white" stroke="#9c27b0" stroke-dasharray="5,2" d="M1228.25,-19C1228.25,-19 1614.2,-19 1614.2,-19 1620.2,-19 1626.2,-25 1626.2,-31 1626.2,-31 1626.2,-102 1626.2,-102 1626.2,-108 1620.2,-114 1614.2,-114 1614.2,-114 1228.25,-114 1228.25,-114 1222.25,-114 1216.25,-108 1216.25,-102 1216.25,-102 1216.25,-31 1216.25,-31 1216.25,-25 1222.25,-19 1228.25,-19"/>
<text xml:space="preserve" text-anchor="middle" x="1421.23" y="-100.5" font-family="Comic Sans MS" font-size="10.00" fill="#2c3e50">3. Vision Encoding</text>
</g>
<g id="clust4" class="cluster">
<title>cluster_gemma</title>
<path fill="white" stroke="#527fff" stroke-dasharray="5,2" d="M1730.7,-13C1730.7,-13 2122.8,-13 2122.8,-13 2128.8,-13 2134.8,-19 2134.8,-25 2134.8,-25 2134.8,-109 2134.8,-109 2134.8,-115 2128.8,-121 2122.8,-121 2122.8,-121 1730.7,-121 1730.7,-121 1724.7,-121 1718.7,-115 1718.7,-109 1718.7,-109 1718.7,-25 1718.7,-25 1718.7,-19 1724.7,-13 1730.7,-13"/>
<text xml:space="preserve" text-anchor="middle" x="1926.75" y="-107.5" font-family="Comic Sans MS" font-size="10.00" fill="#2c3e50">4. Gemma 3N Inference</text>
</g>
<g id="clust5" class="cluster">
<title>cluster_latex</title>
<path fill="white" stroke="#4caf50" stroke-dasharray="5,2" d="M2217.8,-13C2217.8,-13 2595.5,-13 2595.5,-13 2601.5,-13 2607.5,-19 2607.5,-25 2607.5,-25 2607.5,-109 2607.5,-109 2607.5,-115 2601.5,-121 2595.5,-121 2595.5,-121 2217.8,-121 2217.8,-121 2211.8,-121 2205.8,-115 2205.8,-109 2205.8,-109 2205.8,-25 2205.8,-25 2205.8,-19 2211.8,-13 2217.8,-13"/>
<text xml:space="preserve" text-anchor="middle" x="2406.65" y="-107.5" font-family="Comic Sans MS" font-size="10.00" fill="#2c3e50">5. LaTeX Generation</text>
</g>
<g id="clust6" class="cluster">
<title>cluster_pdf</title>
<path fill="white" stroke="#e91e63" stroke-dasharray="5,2" d="M2715.75,-62C2715.75,-62 3299.55,-62 3299.55,-62 3305.55,-62 3311.55,-68 3311.55,-74 3311.55,-74 3311.55,-145 3311.55,-145 3311.55,-151 3305.55,-157 3299.55,-157 3299.55,-157 2715.75,-157 2715.75,-157 2709.75,-157 2703.75,-151 2703.75,-145 2703.75,-145 2703.75,-74 2703.75,-74 2703.75,-68 2709.75,-62 2715.75,-62"/>
<text xml:space="preserve" text-anchor="middle" x="3007.65" y="-143.5" font-family="Comic Sans MS" font-size="10.00" fill="#2c3e50">6. Client&#45;Side Rendering</text>
</g>
<!-- photos -->
<g id="node1" class="node">
<title>photos</title>
<path fill="#e8f4f8" stroke="#2c3e50" stroke-width="2" d="M133.6,-61C133.6,-61 28,-61 28,-61 22,-61 16,-55 16,-49 16,-49 16,-37 16,-37 16,-31 22,-25 28,-25 28,-25 133.6,-25 133.6,-25 139.6,-25 145.6,-31 145.6,-37 145.6,-37 145.6,-49 145.6,-49 145.6,-55 139.6,-61 133.6,-61"/>
<text xml:space="preserve" text-anchor="middle" x="80.8" y="-40.62" font-family="Comic Sans MS" font-size="10.00">PhotosPicker</text>
</g>
<!-- images -->
<g id="node3" class="node">
<title>images</title>
<path fill="#b3e0ff" stroke="#2c3e50" stroke-width="2" d="M350.2,-84.05C350.2,-84.05 244.6,-84.05 244.6,-84.05 238.6,-84.05 232.6,-78.05 232.6,-72.05 232.6,-72.05 232.6,-45.95 232.6,-45.95 232.6,-39.95 238.6,-33.95 244.6,-33.95 244.6,-33.95 350.2,-33.95 350.2,-33.95 356.2,-33.95 362.2,-39.95 362.2,-45.95 362.2,-45.95 362.2,-72.05 362.2,-72.05 362.2,-78.05 356.2,-84.05 350.2,-84.05"/>
<text xml:space="preserve" text-anchor="middle" x="297.4" y="-63.75" font-family="Comic Sans MS" font-size="10.00">UIImage[]</text>
<text xml:space="preserve" text-anchor="middle" x="297.4" y="-49.5" font-family="Comic Sans MS" font-size="10.00">up to 10</text>
</g>
<!-- photos&#45;&gt;images -->
<g id="edge1" class="edge">
<title>photos&#45;&gt;images</title>
<path fill="none" stroke="#2c3e50" stroke-width="1.5" d="M146.48,-47.82C169.6,-49.55 195.87,-51.5 219.9,-53.3"/>
<polygon fill="#2c3e50" stroke="#2c3e50" stroke-width="1.5" points="219.36,-56.77 229.59,-54.02 219.88,-49.78 219.36,-56.77"/>
</g>
<!-- camera -->
<g id="node2" class="node">
<title>camera</title>
<path fill="#e8f4f8" stroke="#2c3e50" stroke-width="2" d="M133.6,-140C133.6,-140 28,-140 28,-140 22,-140 16,-134 16,-128 16,-128 16,-116 16,-116 16,-110 22,-104 28,-104 28,-104 133.6,-104 133.6,-104 139.6,-104 145.6,-110 145.6,-116 145.6,-116 145.6,-128 145.6,-128 145.6,-134 139.6,-140 133.6,-140"/>
<text xml:space="preserve" text-anchor="middle" x="80.8" y="-119.62" font-family="Comic Sans MS" font-size="10.00">Camera</text>
</g>
<!-- camera&#45;&gt;images -->
<g id="edge2" class="edge">
<title>camera&#45;&gt;images</title>
<path fill="none" stroke="#2c3e50" stroke-width="1.5" d="M146.48,-103.01C169.7,-96.19 196.11,-88.44 220.23,-81.36"/>
<polygon fill="#2c3e50" stroke="#2c3e50" stroke-width="1.5" points="221.07,-84.76 229.68,-78.59 219.1,-78.05 221.07,-84.76"/>
</g>
<!-- vimage -->
<g id="node4" class="node">
<title>vimage</title>
<path fill="#ffe0b2" stroke="#2c3e50" stroke-width="2" d="M622.8,-84.05C622.8,-84.05 517.2,-84.05 517.2,-84.05 511.2,-84.05 505.2,-78.05 505.2,-72.05 505.2,-72.05 505.2,-45.95 505.2,-45.95 505.2,-39.95 511.2,-33.95 517.2,-33.95 517.2,-33.95 622.8,-33.95 622.8,-33.95 628.8,-33.95 634.8,-39.95 634.8,-45.95 634.8,-45.95 634.8,-72.05 634.8,-72.05 634.8,-78.05 628.8,-84.05 622.8,-84.05"/>
<text xml:space="preserve" text-anchor="middle" x="570" y="-63.75" font-family="Comic Sans MS" font-size="10.00">vImage</text>
<text xml:space="preserve" text-anchor="middle" x="570" y="-49.5" font-family="Comic Sans MS" font-size="10.00">Accelerate</text>
</g>
<!-- images&#45;&gt;vimage -->
<g id="edge3" class="edge">
<title>images&#45;&gt;vimage</title>
<path fill="none" stroke="#0066cc" stroke-width="1.5" d="M362.87,-59C401.77,-59 451.55,-59 492.45,-59"/>
<polygon fill="#0066cc" stroke="#0066cc" stroke-width="1.5" points="492.28,-62.5 502.28,-59 492.28,-55.5 492.28,-62.5"/>
<text xml:space="preserve" text-anchor="middle" x="433.7" y="-77.45" font-family="Comic Sans MS" font-size="9.00" fill="#2c3e50">up to 5</text>
<text xml:space="preserve" text-anchor="middle" x="433.7" y="-63.95" font-family="Comic Sans MS" font-size="9.00" fill="#2c3e50">for inference</text>
</g>
<!-- parallel -->
<g id="node5" class="node">
<title>parallel</title>
<path fill="#ffcc80" stroke="#2c3e50" stroke-width="2" d="M869.9,-84.05C869.9,-84.05 764.3,-84.05 764.3,-84.05 758.3,-84.05 752.3,-78.05 752.3,-72.05 752.3,-72.05 752.3,-45.95 752.3,-45.95 752.3,-39.95 758.3,-33.95 764.3,-33.95 764.3,-33.95 869.9,-33.95 869.9,-33.95 875.9,-33.95 881.9,-39.95 881.9,-45.95 881.9,-45.95 881.9,-72.05 881.9,-72.05 881.9,-78.05 875.9,-84.05 869.9,-84.05"/>
<text xml:space="preserve" text-anchor="middle" x="817.1" y="-63.75" font-family="Comic Sans MS" font-size="10.00">Parallel</text>
<text xml:space="preserve" text-anchor="middle" x="817.1" y="-49.5" font-family="Comic Sans MS" font-size="10.00">TaskGroup</text>
</g>
<!-- vimage&#45;&gt;parallel -->
<g id="edge4" class="edge">
<title>vimage&#45;&gt;parallel</title>
<path fill="none" stroke="#ff6b35" stroke-width="2.5" d="M635.72,-59C666.99,-59 704.78,-59 737.68,-59"/>
<polygon fill="#ff6b35" stroke="#ff6b35" stroke-width="2.5" points="737.66,-62.5 747.66,-59 737.66,-55.5 737.66,-62.5"/>
<text xml:space="preserve" text-anchor="middle" x="693.55" y="-77.45" font-family="Comic Sans MS" font-size="9.00" fill="#2c3e50">ARM64</text>
<text xml:space="preserve" text-anchor="middle" x="693.55" y="-63.95" font-family="Comic Sans MS" font-size="9.00" fill="#2c3e50">SIMD</text>
</g>
<!-- downscaled -->
<g id="node6" class="node">
<title>downscaled</title>
<path fill="#ffb74d" stroke="#2c3e50" stroke-width="2" d="M1125.25,-84.05C1125.25,-84.05 1019.65,-84.05 1019.65,-84.05 1013.65,-84.05 1007.65,-78.05 1007.65,-72.05 1007.65,-72.05 1007.65,-45.95 1007.65,-45.95 1007.65,-39.95 1013.65,-33.95 1019.65,-33.95 1019.65,-33.95 1125.25,-33.95 1125.25,-33.95 1131.25,-33.95 1137.25,-39.95 1137.25,-45.95 1137.25,-45.95 1137.25,-72.05 1137.25,-72.05 1137.25,-78.05 1131.25,-84.05 1125.25,-84.05"/>
<text xml:space="preserve" text-anchor="middle" x="1072.45" y="-63.75" font-family="Comic Sans MS" font-size="10.00">CGImage[]</text>
<text xml:space="preserve" text-anchor="middle" x="1072.45" y="-49.5" font-family="Comic Sans MS" font-size="10.00">1024&#45;1536px</text>
</g>
<!-- parallel&#45;&gt;downscaled -->
<g id="edge5" class="edge">
<title>parallel&#45;&gt;downscaled</title>
<path fill="none" stroke="#ff6b35" stroke-width="1.5" d="M882.69,-59C916.93,-59 959.22,-59 995.09,-59"/>
<polygon fill="#ff6b35" stroke="#ff6b35" stroke-width="1.5" points="994.71,-62.5 1004.71,-59 994.71,-55.5 994.71,-62.5"/>
<text xml:space="preserve" text-anchor="middle" x="944.78" y="-77.45" font-family="Comic Sans MS" font-size="9.00" fill="#2c3e50">30&#45;70%</text>
<text xml:space="preserve" text-anchor="middle" x="944.78" y="-63.95" font-family="Comic Sans MS" font-size="9.00" fill="#2c3e50">reduction</text>
</g>
<!-- encoder -->
<g id="node7" class="node">
<title>encoder</title>
<path fill="#e1bee7" stroke="#2c3e50" stroke-width="2" d="M1341.85,-84.05C1341.85,-84.05 1236.25,-84.05 1236.25,-84.05 1230.25,-84.05 1224.25,-78.05 1224.25,-72.05 1224.25,-72.05 1224.25,-45.95 1224.25,-45.95 1224.25,-39.95 1230.25,-33.95 1236.25,-33.95 1236.25,-33.95 1341.85,-33.95 1341.85,-33.95 1347.85,-33.95 1353.85,-39.95 1353.85,-45.95 1353.85,-45.95 1353.85,-72.05 1353.85,-72.05 1353.85,-78.05 1347.85,-84.05 1341.85,-84.05"/>
<text xml:space="preserve" text-anchor="middle" x="1289.05" y="-63.75" font-family="Comic Sans MS" font-size="10.00">Vision Encoder</text>
<text xml:space="preserve" text-anchor="middle" x="1289.05" y="-49.5" font-family="Comic Sans MS" font-size="10.00">TFLite</text>
</g>
<!-- downscaled&#45;&gt;encoder -->
<g id="edge6" class="edge">
<title>downscaled&#45;&gt;encoder</title>
<path fill="none" stroke="#9c27b0" stroke-width="1.5" d="M1138.13,-59C1161.25,-59 1187.52,-59 1211.55,-59"/>
<polygon fill="#9c27b0" stroke="#9c27b0" stroke-width="1.5" points="1211.23,-62.5 1221.23,-59 1211.23,-55.5 1211.23,-62.5"/>
</g>
<!-- adapter -->
<g id="node8" class="node">
<title>adapter</title>
<path fill="#ce93d8" stroke="#2c3e50" stroke-width="2" d="M1606.2,-84.05C1606.2,-84.05 1500.6,-84.05 1500.6,-84.05 1494.6,-84.05 1488.6,-78.05 1488.6,-72.05 1488.6,-72.05 1488.6,-45.95 1488.6,-45.95 1488.6,-39.95 1494.6,-33.95 1500.6,-33.95 1500.6,-33.95 1606.2,-33.95 1606.2,-33.95 1612.2,-33.95 1618.2,-39.95 1618.2,-45.95 1618.2,-45.95 1618.2,-72.05 1618.2,-72.05 1618.2,-78.05 1612.2,-84.05 1606.2,-84.05"/>
<text xml:space="preserve" text-anchor="middle" x="1553.4" y="-63.75" font-family="Comic Sans MS" font-size="10.00">Vision Adapter</text>
<text xml:space="preserve" text-anchor="middle" x="1553.4" y="-49.5" font-family="Comic Sans MS" font-size="10.00">TFLite</text>
</g>
<!-- encoder&#45;&gt;adapter -->
<g id="edge7" class="edge">
<title>encoder&#45;&gt;adapter</title>
<path fill="none" stroke="#9c27b0" stroke-width="1.5" d="M1354.56,-59C1391.12,-59 1437.07,-59 1475.49,-59"/>
<polygon fill="#9c27b0" stroke="#9c27b0" stroke-width="1.5" points="1475.41,-62.5 1485.41,-59 1475.41,-55.5 1475.41,-62.5"/>
<text xml:space="preserve" text-anchor="middle" x="1421.23" y="-63.95" font-family="Comic Sans MS" font-size="9.00" fill="#2c3e50">embeddings</text>
</g>
<!-- gemma -->
<g id="node9" class="node">
<title>gemma</title>
<path fill="#bbd7ff" stroke="#2c3e50" stroke-width="2" d="M1858.7,-91.17C1858.7,-91.17 1738.7,-91.17 1738.7,-91.17 1732.7,-91.17 1726.7,-85.17 1726.7,-79.17 1726.7,-79.17 1726.7,-38.83 1726.7,-38.83 1726.7,-32.82 1732.7,-26.83 1738.7,-26.83 1738.7,-26.83 1858.7,-26.83 1858.7,-26.83 1864.7,-26.83 1870.7,-32.83 1870.7,-38.83 1870.7,-38.83 1870.7,-79.17 1870.7,-79.17 1870.7,-85.17 1864.7,-91.17 1858.7,-91.17"/>
<text xml:space="preserve" text-anchor="middle" x="1798.7" y="-70.88" font-family="Comic Sans MS" font-size="10.00">Gemma 3N</text>
<text xml:space="preserve" text-anchor="middle" x="1798.7" y="-56.62" font-family="Comic Sans MS" font-size="10.00">INT4 Quantized</text>
<text xml:space="preserve" text-anchor="middle" x="1798.7" y="-42.38" font-family="Comic Sans MS" font-size="10.00">2B or 4B</text>
</g>
<!-- adapter&#45;&gt;gemma -->
<g id="edge8" class="edge">
<title>adapter&#45;&gt;gemma</title>
<path fill="none" stroke="#527fff" stroke-width="2.5" d="M1618.96,-59C1647.66,-59 1681.83,-59 1712.58,-59"/>
<polygon fill="#527fff" stroke="#527fff" stroke-width="2.5" points="1712.19,-62.5 1722.19,-59 1712.19,-55.5 1712.19,-62.5"/>
<text xml:space="preserve" text-anchor="middle" x="1672.45" y="-77.45" font-family="Comic Sans MS" font-size="9.00" fill="#2c3e50">vision</text>
<text xml:space="preserve" text-anchor="middle" x="1672.45" y="-63.95" font-family="Comic Sans MS" font-size="9.00" fill="#2c3e50">input</text>
</g>
<!-- stream -->
<g id="node10" class="node">
<title>stream</title>
<path fill="#90caf9" stroke="#2c3e50" stroke-width="2" d="M2114.8,-89.05C2114.8,-89.05 2009.2,-89.05 2009.2,-89.05 2003.2,-89.05 1997.2,-83.05 1997.2,-77.05 1997.2,-77.05 1997.2,-50.95 1997.2,-50.95 1997.2,-44.95 2003.2,-38.95 2009.2,-38.95 2009.2,-38.95 2114.8,-38.95 2114.8,-38.95 2120.8,-38.95 2126.8,-44.95 2126.8,-50.95 2126.8,-50.95 2126.8,-77.05 2126.8,-77.05 2126.8,-83.05 2120.8,-89.05 2114.8,-89.05"/>
<text xml:space="preserve" text-anchor="middle" x="2062" y="-68.75" font-family="Comic Sans MS" font-size="10.00">Token Stream</text>
<text xml:space="preserve" text-anchor="middle" x="2062" y="-54.5" font-family="Comic Sans MS" font-size="10.00">30fps Updates</text>
</g>
<!-- gemma&#45;&gt;stream -->
<g id="edge9" class="edge">
<title>gemma&#45;&gt;stream</title>
<path fill="none" stroke="#527fff" stroke-width="1.5" d="M1871.45,-60.37C1906.6,-61.05 1948.96,-61.86 1984.7,-62.54"/>
<polygon fill="#527fff" stroke="#527fff" stroke-width="1.5" points="1984.22,-66.03 1994.28,-62.72 1984.35,-59.03 1984.22,-66.03"/>
<text xml:space="preserve" text-anchor="middle" x="1933.95" y="-80.4" font-family="Comic Sans MS" font-size="9.00" fill="#2c3e50">INT4 ops</text>
<text xml:space="preserve" text-anchor="middle" x="1933.95" y="-66.9" font-family="Comic Sans MS" font-size="9.00" fill="#2c3e50">ARM64</text>
</g>
<!-- extract -->
<g id="node11" class="node">
<title>extract</title>
<path fill="#c8e6c9" stroke="#2c3e50" stroke-width="2" d="M2331.4,-89.05C2331.4,-89.05 2225.8,-89.05 2225.8,-89.05 2219.8,-89.05 2213.8,-83.05 2213.8,-77.05 2213.8,-77.05 2213.8,-50.95 2213.8,-50.95 2213.8,-44.95 2219.8,-38.95 2225.8,-38.95 2225.8,-38.95 2331.4,-38.95 2331.4,-38.95 2337.4,-38.95 2343.4,-44.95 2343.4,-50.95 2343.4,-50.95 2343.4,-77.05 2343.4,-77.05 2343.4,-83.05 2337.4,-89.05 2331.4,-89.05"/>
<text xml:space="preserve" text-anchor="middle" x="2278.6" y="-68.75" font-family="Comic Sans MS" font-size="10.00">Extract</text>
<text xml:space="preserve" text-anchor="middle" x="2278.6" y="-54.5" font-family="Comic Sans MS" font-size="10.00">LaTeX</text>
</g>
<!-- stream&#45;&gt;extract -->
<g id="edge10" class="edge">
<title>stream&#45;&gt;extract</title>
<path fill="none" stroke="#4caf50" stroke-width="1.5" d="M2127.68,-64C2150.8,-64 2177.07,-64 2201.1,-64"/>
<polygon fill="#4caf50" stroke="#4caf50" stroke-width="1.5" points="2200.78,-67.5 2210.78,-64 2200.78,-60.5 2200.78,-67.5"/>
</g>
<!-- latex -->
<g id="node12" class="node">
<title>latex</title>
<path fill="#a5d6a7" stroke="#2c3e50" stroke-width="2" d="M2587.5,-89.05C2587.5,-89.05 2481.9,-89.05 2481.9,-89.05 2475.9,-89.05 2469.9,-83.05 2469.9,-77.05 2469.9,-77.05 2469.9,-50.95 2469.9,-50.95 2469.9,-44.95 2475.9,-38.95 2481.9,-38.95 2481.9,-38.95 2587.5,-38.95 2587.5,-38.95 2593.5,-38.95 2599.5,-44.95 2599.5,-50.95 2599.5,-50.95 2599.5,-77.05 2599.5,-77.05 2599.5,-83.05 2593.5,-89.05 2587.5,-89.05"/>
<text xml:space="preserve" text-anchor="middle" x="2534.7" y="-68.75" font-family="Comic Sans MS" font-size="10.00">LaTeX Code</text>
<text xml:space="preserve" text-anchor="middle" x="2534.7" y="-54.5" font-family="Comic Sans MS" font-size="10.00">Validated</text>
</g>
<!-- extract&#45;&gt;latex -->
<g id="edge11" class="edge">
<title>extract&#45;&gt;latex</title>
<path fill="none" stroke="#4caf50" stroke-width="1.5" d="M2344.38,-64C2378.72,-64 2421.14,-64 2457.11,-64"/>
<polygon fill="#4caf50" stroke="#4caf50" stroke-width="1.5" points="2456.77,-67.5 2466.77,-64 2456.77,-60.5 2456.77,-67.5"/>
<text xml:space="preserve" text-anchor="middle" x="2406.65" y="-82.45" font-family="Comic Sans MS" font-size="9.00" fill="#2c3e50">strip</text>
<text xml:space="preserve" text-anchor="middle" x="2406.65" y="-68.95" font-family="Comic Sans MS" font-size="9.00" fill="#2c3e50">markdown</text>
</g>
<!-- webview -->
<g id="node13" class="node">
<title>webview</title>
<path fill="#f8bbd0" stroke="#2c3e50" stroke-width="2" d="M2829.35,-127.05C2829.35,-127.05 2723.75,-127.05 2723.75,-127.05 2717.75,-127.05 2711.75,-121.05 2711.75,-115.05 2711.75,-115.05 2711.75,-88.95 2711.75,-88.95 2711.75,-82.95 2717.75,-76.95 2723.75,-76.95 2723.75,-76.95 2829.35,-76.95 2829.35,-76.95 2835.35,-76.95 2841.35,-82.95 2841.35,-88.95 2841.35,-88.95 2841.35,-115.05 2841.35,-115.05 2841.35,-121.05 2835.35,-127.05 2829.35,-127.05"/>
<text xml:space="preserve" text-anchor="middle" x="2776.55" y="-106.75" font-family="Comic Sans MS" font-size="10.00">WKWebView</text>
<text xml:space="preserve" text-anchor="middle" x="2776.55" y="-92.5" font-family="Comic Sans MS" font-size="10.00">+ latex.js</text>
</g>
<!-- latex&#45;&gt;webview -->
<g id="edge12" class="edge">
<title>latex&#45;&gt;webview</title>
<path fill="none" stroke="#e91e63" stroke-width="1.5" d="M2600.29,-74.23C2630.68,-79.05 2667.14,-84.82 2698.92,-89.86"/>
<polygon fill="#e91e63" stroke="#e91e63" stroke-width="1.5" points="2698.18,-93.29 2708.6,-91.39 2699.27,-86.37 2698.18,-93.29"/>
<text xml:space="preserve" text-anchor="middle" x="2655.63" y="-102.59" font-family="Comic Sans MS" font-size="9.00" fill="#2c3e50">inject</text>
<text xml:space="preserve" text-anchor="middle" x="2655.63" y="-89.09" font-family="Comic Sans MS" font-size="9.00" fill="#2c3e50">HTML</text>
</g>
<!-- storage -->
<g id="node16" class="node">
<title>storage</title>
<path fill="#81c784" stroke="#2c3e50" stroke-width="2" d="M3537.15,-72.05C3537.15,-72.05 3431.55,-72.05 3431.55,-72.05 3425.55,-72.05 3419.55,-66.05 3419.55,-60.05 3419.55,-60.05 3419.55,-33.95 3419.55,-33.95 3419.55,-27.95 3425.55,-21.95 3431.55,-21.95 3431.55,-21.95 3537.15,-21.95 3537.15,-21.95 3543.15,-21.95 3549.15,-27.95 3549.15,-33.95 3549.15,-33.95 3549.15,-60.05 3549.15,-60.05 3549.15,-66.05 3543.15,-72.05 3537.15,-72.05"/>
<text xml:space="preserve" text-anchor="middle" x="3484.35" y="-51.75" font-family="Comic Sans MS" font-size="10.00" fill="white">SwiftData</text>
<text xml:space="preserve" text-anchor="middle" x="3484.35" y="-37.5" font-family="Comic Sans MS" font-size="10.00" fill="white">Storage</text>
</g>
<!-- latex&#45;&gt;storage -->
<g id="edge15" class="edge">
<title>latex&#45;&gt;storage</title>
<path fill="none" stroke="#4caf50" stroke-width="1.5" stroke-dasharray="5,2" d="M2600.29,-42.17C2648.1,-27.94 2715.15,-12 2775.55,-12 2775.55,-12 2775.55,-12 3239.75,-12 3296.07,-12 3358.99,-21.28 3406.77,-30.28"/>
<polygon fill="#4caf50" stroke="#4caf50" stroke-width="1.5" points="3405.86,-33.68 3416.35,-32.13 3407.19,-26.8 3405.86,-33.68"/>
<text xml:space="preserve" text-anchor="middle" x="3022.15" y="-16.95" font-family="Comic Sans MS" font-size="9.00" fill="#2c3e50">persist</text>
</g>
<!-- pdfgen -->
<g id="node14" class="node">
<title>pdfgen</title>
<path fill="#f48fb1" stroke="#2c3e50" stroke-width="2" d="M3074.95,-125C3074.95,-125 2969.35,-125 2969.35,-125 2963.35,-125 2957.35,-119 2957.35,-113 2957.35,-113 2957.35,-101 2957.35,-101 2957.35,-95 2963.35,-89 2969.35,-89 2969.35,-89 3074.95,-89 3074.95,-89 3080.95,-89 3086.95,-95 3086.95,-101 3086.95,-101 3086.95,-113 3086.95,-113 3086.95,-119 3080.95,-125 3074.95,-125"/>
<text xml:space="preserve" text-anchor="middle" x="3022.15" y="-104.62" font-family="Comic Sans MS" font-size="10.00">createPDF()</text>
</g>
<!-- webview&#45;&gt;pdfgen -->
<g id="edge13" class="edge">
<title>webview&#45;&gt;pdfgen</title>
<path fill="none" stroke="#e91e63" stroke-width="1.5" d="M2842.19,-103.33C2873.7,-103.97 2911.81,-104.76 2944.75,-105.43"/>
<polygon fill="#e91e63" stroke="#e91e63" stroke-width="1.5" points="2944.29,-108.92 2954.36,-105.63 2944.43,-101.92 2944.29,-108.92"/>
<text xml:space="preserve" text-anchor="middle" x="2899.35" y="-109.75" font-family="Comic Sans MS" font-size="9.00" fill="#2c3e50">compile</text>
</g>
<!-- pdfout -->
<g id="node15" class="node">
<title>pdfout</title>
<path fill="#ec407a" stroke="#2c3e50" stroke-width="2" d="M3291.55,-120C3291.55,-120 3185.95,-120 3185.95,-120 3179.95,-120 3173.95,-114 3173.95,-108 3173.95,-108 3173.95,-96 3173.95,-96 3173.95,-90 3179.95,-84 3185.95,-84 3185.95,-84 3291.55,-84 3291.55,-84 3297.55,-84 3303.55,-90 3303.55,-96 3303.55,-96 3303.55,-108 3303.55,-108 3303.55,-114 3297.55,-120 3291.55,-120"/>
<text xml:space="preserve" text-anchor="middle" x="3238.75" y="-99.62" font-family="Comic Sans MS" font-size="10.00" fill="white">PDFDocument</text>
</g>
<!-- pdfgen&#45;&gt;pdfout -->
<g id="edge14" class="edge">
<title>pdfgen&#45;&gt;pdfout</title>
<path fill="none" stroke="#e91e63" stroke-width="2" d="M3087.83,-105.49C3110.63,-104.96 3136.5,-104.36 3160.26,-103.81"/>
<polygon fill="#e91e63" stroke="#e91e63" stroke-width="2" points="3160.26,-107.31 3170.18,-103.57 3160.1,-100.31 3160.26,-107.31"/>
</g>
<!-- pdfout&#45;&gt;storage -->
<g id="edge16" class="edge">
<title>pdfout&#45;&gt;storage</title>
<path fill="none" stroke="#e91e63" stroke-width="1.5" stroke-dasharray="5,2" d="M3304.39,-87.41C3335.9,-80.29 3374.01,-71.69 3406.95,-64.25"/>
<polygon fill="#e91e63" stroke="#e91e63" stroke-width="1.5" points="3407.63,-67.68 3416.62,-62.07 3406.09,-60.86 3407.63,-67.68"/>
<text xml:space="preserve" text-anchor="middle" x="3361.55" y="-82.74" font-family="Comic Sans MS" font-size="9.00" fill="#2c3e50">persist</text>
</g>
</g>
</svg>
