<?xml version="1.0" encoding="UTF-8" standalone="no"?>
<!DOCTYPE svg PUBLIC "-//W3C//DTD SVG 1.1//EN"
 "http://www.w3.org/Graphics/SVG/1.1/DTD/svg11.dtd">
<!-- Generated by graphviz version 14.0.1 (20251006.0113)
 -->
<!-- Title: Pic2PDF_Architecture Pages: 1 -->
<svg width="5283pt" height="2750pt"
 viewBox="0.00 0.00 5283.00 2750.00" xmlns="http://www.w3.org/2000/svg" xmlns:xlink="http://www.w3.org/1999/xlink">
<g id="graph0" class="graph" transform="scale(4.16667 4.16667) rotate(0) translate(4 655.9)">
<title>Pic2PDF_Architecture</title>
<polygon fill="white" stroke="none" points="-4,4 -4,-655.9 1264,-655.9 1264,4 -4,4"/>
<g id="clust1" class="cluster">
<title>cluster_ui</title>
<path fill="white" stroke="#0066cc" stroke-dasharray="5,2" d="M20,-350.7C20,-350.7 794,-350.7 794,-350.7 800,-350.7 806,-356.7 806,-362.7 806,-362.7 806,-631.9 806,-631.9 806,-637.9 800,-643.9 794,-643.9 794,-643.9 20,-643.9 20,-643.9 14,-643.9 8,-637.9 8,-631.9 8,-631.9 8,-362.7 8,-362.7 8,-356.7 14,-350.7 20,-350.7"/>
<text xml:space="preserve" text-anchor="middle" x="407" y="-629.45" font-family="Comic Sans MS" font-size="11.00" fill="#2c3e50">Presentation Layer (SwiftUI)</text>
</g>
<g id="clust2" class="cluster">
<title>cluster_logic</title>
<path fill="white" stroke="#527fff" stroke-dasharray="5,2" d="M853,-172.6C853,-172.6 1240,-172.6 1240,-172.6 1246,-172.6 1252,-178.6 1252,-184.6 1252,-184.6 1252,-453.8 1252,-453.8 1252,-459.8 1246,-465.8 1240,-465.8 1240,-465.8 853,-465.8 853,-465.8 847,-465.8 841,-459.8 841,-453.8 841,-453.8 841,-184.6 841,-184.6 841,-178.6 847,-172.6 853,-172.6"/>
<text xml:space="preserve" text-anchor="middle" x="1046.5" y="-451.35" font-family="Comic Sans MS" font-size="11.00" fill="#2c3e50">Business Logic Layer</text>
</g>
<g id="clust3" class="cluster">
<title>cluster_data</title>
<path fill="white" stroke="#33aa55" stroke-dasharray="5,2" d="M67,-8C67,-8 425,-8 425,-8 431,-8 437,-14 437,-20 437,-20 437,-275.7 437,-275.7 437,-281.7 431,-287.7 425,-287.7 425,-287.7 67,-287.7 67,-287.7 61,-287.7 55,-281.7 55,-275.7 55,-275.7 55,-20 55,-20 55,-14 61,-8 67,-8"/>
<text xml:space="preserve" text-anchor="middle" x="246" y="-273.25" font-family="Comic Sans MS" font-size="11.00" fill="#2c3e50">Data Layer (SwiftData)</text>
</g>
<g id="clust4" class="cluster">
<title>cluster_external</title>
<path fill="white" stroke="#ff9800" stroke-dasharray="5,2" d="M630,-8C630,-8 1240,-8 1240,-8 1246,-8 1252,-14 1252,-20 1252,-20 1252,-111.1 1252,-111.1 1252,-117.1 1246,-123.1 1240,-123.1 1240,-123.1 630,-123.1 630,-123.1 624,-123.1 618,-117.1 618,-111.1 618,-111.1 618,-20 618,-20 618,-14 624,-8 630,-8"/>
<text xml:space="preserve" text-anchor="middle" x="935" y="-108.65" font-family="Comic Sans MS" font-size="11.00" fill="#2c3e50">External Dependencies</text>
</g>
<!-- tabview -->
<g id="node1" class="node">
<title>tabview</title>
<path fill="#e8f4f8" stroke="#2c3e50" stroke-width="2" d="M467,-586.9C467,-586.9 347,-586.9 347,-586.9 341,-586.9 335,-580.9 335,-574.9 335,-574.9 335,-548.8 335,-548.8 335,-542.8 341,-536.8 347,-536.8 347,-536.8 467,-536.8 467,-536.8 473,-536.8 479,-542.8 479,-548.8 479,-548.8 479,-574.9 479,-574.9 479,-580.9 473,-586.9 467,-586.9"/>
<text xml:space="preserve" text-anchor="middle" x="407" y="-566.6" font-family="Comic Sans MS" font-size="10.00">TabView</text>
<text xml:space="preserve" text-anchor="middle" x="407" y="-552.35" font-family="Comic Sans MS" font-size="10.00">Main Container</text>
</g>
<!-- generate -->
<g id="node2" class="node">
<title>generate</title>
<path fill="#b3e0ff" stroke="#2c3e50" stroke-width="2" d="M370.2,-408.8C370.2,-408.8 235.8,-408.8 235.8,-408.8 229.8,-408.8 223.8,-402.8 223.8,-396.8 223.8,-396.8 223.8,-370.7 223.8,-370.7 223.8,-364.7 229.8,-358.7 235.8,-358.7 235.8,-358.7 370.2,-358.7 370.2,-358.7 376.2,-358.7 382.2,-364.7 382.2,-370.7 382.2,-370.7 382.2,-396.8 382.2,-396.8 382.2,-402.8 376.2,-408.8 370.2,-408.8"/>
<text xml:space="preserve" text-anchor="middle" x="303" y="-388.5" font-family="Comic Sans MS" font-size="10.00">MainGenerationView</text>
<text xml:space="preserve" text-anchor="middle" x="303" y="-374.25" font-family="Comic Sans MS" font-size="10.00">Photo Selection</text>
</g>
<!-- tabview&#45;&gt;generate -->
<g id="edge1" class="edge">
<title>tabview&#45;&gt;generate</title>
<path fill="none" stroke="#2c3e50" stroke-width="1.5" d="M392.32,-535.99C374.49,-505.79 344.27,-454.63 323.98,-420.28"/>
<polygon fill="#2c3e50" stroke="#2c3e50" stroke-width="1.5" points="327.03,-418.55 318.93,-411.72 321,-422.11 327.03,-418.55"/>
</g>
<!-- history -->
<g id="node3" class="node">
<title>history</title>
<path fill="#b3e0ff" stroke="#2c3e50" stroke-width="2" d="M162.2,-408.8C162.2,-408.8 27.8,-408.8 27.8,-408.8 21.8,-408.8 15.8,-402.8 15.8,-396.8 15.8,-396.8 15.8,-370.7 15.8,-370.7 15.8,-364.7 21.8,-358.7 27.8,-358.7 27.8,-358.7 162.2,-358.7 162.2,-358.7 168.2,-358.7 174.2,-364.7 174.2,-370.7 174.2,-370.7 174.2,-396.8 174.2,-396.8 174.2,-402.8 168.2,-408.8 162.2,-408.8"/>
<text xml:space="preserve" text-anchor="middle" x="95" y="-388.5" font-family="Comic Sans MS" font-size="10.00">HistoryView</text>
<text xml:space="preserve" text-anchor="middle" x="95" y="-374.25" font-family="Comic Sans MS" font-size="10.00">Past Generations</text>
</g>
<!-- tabview&#45;&gt;history -->
<g id="edge2" class="edge">
<title>tabview&#45;&gt;history</title>
<path fill="none" stroke="#2c3e50" stroke-width="1.5" d="M342.24,-535.85C300.16,-518.51 244.82,-493.6 199,-465.8 175.73,-451.68 151.64,-433.19 132.51,-417.44"/>
<polygon fill="#2c3e50" stroke="#2c3e50" stroke-width="1.5" points="134.93,-414.9 125.01,-411.18 130.44,-420.27 134.93,-414.9"/>
</g>
<!-- stats -->
<g id="node4" class="node">
<title>stats</title>
<path fill="#b3e0ff" stroke="#2c3e50" stroke-width="2" d="M578.2,-408.8C578.2,-408.8 443.8,-408.8 443.8,-408.8 437.8,-408.8 431.8,-402.8 431.8,-396.8 431.8,-396.8 431.8,-370.7 431.8,-370.7 431.8,-364.7 437.8,-358.7 443.8,-358.7 443.8,-358.7 578.2,-358.7 578.2,-358.7 584.2,-358.7 590.2,-364.7 590.2,-370.7 590.2,-370.7 590.2,-396.8 590.2,-396.8 590.2,-402.8 584.2,-408.8 578.2,-408.8"/>
<text xml:space="preserve" text-anchor="middle" x="511" y="-388.5" font-family="Comic Sans MS" font-size="10.00">StatsView</text>
<text xml:space="preserve" text-anchor="middle" x="511" y="-374.25" font-family="Comic Sans MS" font-size="10.00">Analytics</text>
</g>
<!-- tabview&#45;&gt;stats -->
<g id="edge3" class="edge">
<title>tabview&#45;&gt;stats</title>
<path fill="none" stroke="#2c3e50" stroke-width="1.5" d="M421.68,-535.99C439.51,-505.79 469.73,-454.63 490.02,-420.28"/>
<polygon fill="#2c3e50" stroke="#2c3e50" stroke-width="1.5" points="493,-422.11 495.07,-411.72 486.97,-418.55 493,-422.11"/>
</g>
<!-- settings -->
<g id="node5" class="node">
<title>settings</title>
<path fill="#b3e0ff" stroke="#2c3e50" stroke-width="2" d="M786.2,-408.8C786.2,-408.8 651.8,-408.8 651.8,-408.8 645.8,-408.8 639.8,-402.8 639.8,-396.8 639.8,-396.8 639.8,-370.7 639.8,-370.7 639.8,-364.7 645.8,-358.7 651.8,-358.7 651.8,-358.7 786.2,-358.7 786.2,-358.7 792.2,-358.7 798.2,-364.7 798.2,-370.7 798.2,-370.7 798.2,-396.8 798.2,-396.8 798.2,-402.8 792.2,-408.8 786.2,-408.8"/>
<text xml:space="preserve" text-anchor="middle" x="719" y="-388.5" font-family="Comic Sans MS" font-size="10.00">SettingsView</text>
<text xml:space="preserve" text-anchor="middle" x="719" y="-374.25" font-family="Comic Sans MS" font-size="10.00">Configuration</text>
</g>
<!-- tabview&#45;&gt;settings -->
<g id="edge4" class="edge">
<title>tabview&#45;&gt;settings</title>
<path fill="none" stroke="#2c3e50" stroke-width="1.5" d="M479.71,-551.41C546.32,-541.47 638.73,-524.05 667,-500.8 691.29,-480.82 704.65,-447.15 711.72,-421.21"/>
<polygon fill="#2c3e50" stroke="#2c3e50" stroke-width="1.5" points="715.05,-422.3 714.08,-411.75 708.26,-420.61 715.05,-422.3"/>
</g>
<!-- llm -->
<g id="node6" class="node">
<title>llm</title>
<path fill="#bbd7ff" stroke="#2c3e50" stroke-width="2" d="M1009.4,-230.7C1009.4,-230.7 860.6,-230.7 860.6,-230.7 854.6,-230.7 848.6,-224.7 848.6,-218.7 848.6,-218.7 848.6,-192.6 848.6,-192.6 848.6,-186.6 854.6,-180.6 860.6,-180.6 860.6,-180.6 1009.4,-180.6 1009.4,-180.6 1015.4,-180.6 1021.4,-186.6 1021.4,-192.6 1021.4,-192.6 1021.4,-218.7 1021.4,-218.7 1021.4,-224.7 1015.4,-230.7 1009.4,-230.7"/>
<text xml:space="preserve" text-anchor="middle" x="935" y="-210.4" font-family="Comic Sans MS" font-size="10.00">OnDeviceLLMService</text>
<text xml:space="preserve" text-anchor="middle" x="935" y="-196.15" font-family="Comic Sans MS" font-size="10.00">Gemma 3N Inference</text>
</g>
<!-- generate&#45;&gt;llm -->
<g id="edge5" class="edge">
<title>generate&#45;&gt;llm</title>
<path fill="none" stroke="#0066cc" stroke-width="2" d="M313.14,-357.9C322.89,-337.48 339.71,-309.71 363.75,-295.7 380.19,-286.12 430.13,-290.16 449,-287.7 583.29,-270.22 737.34,-243.37 835.36,-225.42"/>
<polygon fill="#0066cc" stroke="#0066cc" stroke-width="2" points="835.75,-228.9 844.95,-223.65 834.48,-222.02 835.75,-228.9"/>
<text xml:space="preserve" text-anchor="middle" x="381.38" y="-307.4" font-family="Comic Sans MS" font-size="9.00" fill="#2c3e50">images[]</text>
</g>
<!-- renderer -->
<g id="node7" class="node">
<title>renderer</title>
<path fill="#bbd7ff" stroke="#2c3e50" stroke-width="2" d="M1009.4,-408.8C1009.4,-408.8 860.6,-408.8 860.6,-408.8 854.6,-408.8 848.6,-402.8 848.6,-396.8 848.6,-396.8 848.6,-370.7 848.6,-370.7 848.6,-364.7 854.6,-358.7 860.6,-358.7 860.6,-358.7 1009.4,-358.7 1009.4,-358.7 1015.4,-358.7 1021.4,-364.7 1021.4,-370.7 1021.4,-370.7 1021.4,-396.8 1021.4,-396.8 1021.4,-402.8 1015.4,-408.8 1009.4,-408.8"/>
<text xml:space="preserve" text-anchor="middle" x="935" y="-388.5" font-family="Comic Sans MS" font-size="10.00">LaTeXRenderer</text>
<text xml:space="preserve" text-anchor="middle" x="935" y="-374.25" font-family="Comic Sans MS" font-size="10.00">WKWebView + latex.js</text>
</g>
<!-- generate&#45;&gt;renderer -->
<g id="edge7" class="edge">
<title>generate&#45;&gt;renderer</title>
<path fill="none" stroke="#9c27b0" stroke-width="1.5" d="M326.18,-409.57C345.57,-429.13 375.13,-454.51 407,-465.8 493.09,-496.29 731.15,-494.05 818,-465.8 848.21,-455.97 877.47,-435.45 899.18,-417.39"/>
<polygon fill="#9c27b0" stroke="#9c27b0" stroke-width="1.5" points="901.25,-420.22 906.57,-411.05 896.7,-414.9 901.25,-420.22"/>
<text xml:space="preserve" text-anchor="middle" x="641" y="-485.5" font-family="Comic Sans MS" font-size="9.00" fill="#2c3e50">LaTeX</text>
</g>
<!-- storage -->
<g id="node9" class="node">
<title>storage</title>
<path fill="#c8e6c9" stroke="#2c3e50" stroke-width="2" d="M282.2,-230.7C282.2,-230.7 147.8,-230.7 147.8,-230.7 141.8,-230.7 135.8,-224.7 135.8,-218.7 135.8,-218.7 135.8,-192.6 135.8,-192.6 135.8,-186.6 141.8,-180.6 147.8,-180.6 147.8,-180.6 282.2,-180.6 282.2,-180.6 288.2,-180.6 294.2,-186.6 294.2,-192.6 294.2,-192.6 294.2,-218.7 294.2,-218.7 294.2,-224.7 288.2,-230.7 282.2,-230.7"/>
<text xml:space="preserve" text-anchor="middle" x="215" y="-210.4" font-family="Comic Sans MS" font-size="10.00">StorageManager</text>
<text xml:space="preserve" text-anchor="middle" x="215" y="-196.15" font-family="Comic Sans MS" font-size="10.00">Persistence</text>
</g>
<!-- generate&#45;&gt;storage -->
<g id="edge9" class="edge">
<title>generate&#45;&gt;storage</title>
<path fill="none" stroke="#33aa55" stroke-width="2" d="M290.58,-357.89C275.62,-327.95 250.36,-277.42 233.2,-243.08"/>
<polygon fill="#33aa55" stroke="#33aa55" stroke-width="2" points="236.45,-241.75 228.85,-234.37 230.19,-244.88 236.45,-241.75"/>
<text xml:space="preserve" text-anchor="middle" x="281.4" y="-307.4" font-family="Comic Sans MS" font-size="9.00" fill="#2c3e50">save</text>
</g>
<!-- history&#45;&gt;storage -->
<g id="edge10" class="edge">
<title>history&#45;&gt;storage</title>
<path fill="none" stroke="#33aa55" stroke-width="1.5" stroke-dasharray="5,2" d="M111.94,-357.89C132.61,-327.56 167.68,-276.09 191.09,-241.74"/>
<polygon fill="#33aa55" stroke="#33aa55" stroke-width="1.5" points="193.94,-243.78 196.68,-233.54 188.15,-239.83 193.94,-243.78"/>
<text xml:space="preserve" text-anchor="middle" x="159.65" y="-307.4" font-family="Comic Sans MS" font-size="9.00" fill="#2c3e50">load</text>
</g>
<!-- downloader -->
<g id="node8" class="node">
<title>downloader</title>
<path fill="#bbd7ff" stroke="#2c3e50" stroke-width="2" d="M1232.4,-408.8C1232.4,-408.8 1083.6,-408.8 1083.6,-408.8 1077.6,-408.8 1071.6,-402.8 1071.6,-396.8 1071.6,-396.8 1071.6,-370.7 1071.6,-370.7 1071.6,-364.7 1077.6,-358.7 1083.6,-358.7 1083.6,-358.7 1232.4,-358.7 1232.4,-358.7 1238.4,-358.7 1244.4,-364.7 1244.4,-370.7 1244.4,-370.7 1244.4,-396.8 1244.4,-396.8 1244.4,-402.8 1238.4,-408.8 1232.4,-408.8"/>
<text xml:space="preserve" text-anchor="middle" x="1158" y="-388.5" font-family="Comic Sans MS" font-size="10.00">ModelDownloadManager</text>
<text xml:space="preserve" text-anchor="middle" x="1158" y="-374.25" font-family="Comic Sans MS" font-size="10.00">R2 Downloads</text>
</g>
<!-- settings&#45;&gt;downloader -->
<g id="edge13" class="edge">
<title>settings&#45;&gt;downloader</title>
<path fill="none" stroke="#ff9800" stroke-width="1.5" d="M744.99,-409.49C765.85,-428.47 796.87,-453.11 829,-465.8 864.51,-479.83 876.25,-473.24 914.38,-475.38 972.94,-478.65 991.29,-486.95 1046,-465.8 1074.27,-454.87 1101.79,-434.88 1122.48,-417.37"/>
<polygon fill="#ff9800" stroke="#ff9800" stroke-width="1.5" points="1124.52,-420.24 1129.76,-411.03 1119.92,-414.95 1124.52,-420.24"/>
<text xml:space="preserve" text-anchor="middle" x="935" y="-492.25" font-family="Comic Sans MS" font-size="9.00" fill="#2c3e50">download/</text>
<text xml:space="preserve" text-anchor="middle" x="935" y="-478.75" font-family="Comic Sans MS" font-size="9.00" fill="#2c3e50">switch</text>
</g>
<!-- llm&#45;&gt;generate -->
<g id="edge6" class="edge">
<title>llm&#45;&gt;generate</title>
<path fill="none" stroke="#0066cc" stroke-width="1.5" stroke-dasharray="5,2" d="M847.87,-229.49C742.99,-257.2 561.66,-305.78 407,-350.7 402.98,-351.87 398.87,-353.07 394.73,-354.3"/>
<polygon fill="#0066cc" stroke="#0066cc" stroke-width="1.5" points="393.73,-350.95 385.16,-357.16 395.74,-357.65 393.73,-350.95"/>
<text xml:space="preserve" text-anchor="middle" x="610.29" y="-314.15" font-family="Comic Sans MS" font-size="9.00" fill="#2c3e50">stream</text>
<text xml:space="preserve" text-anchor="middle" x="610.29" y="-300.65" font-family="Comic Sans MS" font-size="9.00" fill="#2c3e50">LaTeX</text>
</g>
<!-- llm&#45;&gt;stats -->
<g id="edge18" class="edge">
<title>llm&#45;&gt;stats</title>
<path fill="none" stroke="#dd4477" stroke-width="1.5" stroke-dasharray="1,5" d="M874.91,-231.61C797.93,-263.58 664.67,-318.93 582.54,-353.04"/>
<polygon fill="#dd4477" stroke="#dd4477" stroke-width="1.5" points="581.29,-349.77 573.4,-356.84 583.97,-356.23 581.29,-349.77"/>
<text xml:space="preserve" text-anchor="middle" x="729.79" y="-314.15" font-family="Comic Sans MS" font-size="9.00" fill="#2c3e50">real&#45;time</text>
<text xml:space="preserve" text-anchor="middle" x="729.79" y="-300.65" font-family="Comic Sans MS" font-size="9.00" fill="#2c3e50">metrics</text>
</g>
<!-- mediapipe -->
<g id="node12" class="node">
<title>mediapipe</title>
<path fill="#ffe0b2" stroke="#2c3e50" stroke-width="2" d="M1009.4,-66.1C1009.4,-66.1 860.6,-66.1 860.6,-66.1 854.6,-66.1 848.6,-60.1 848.6,-54.1 848.6,-54.1 848.6,-28 848.6,-28 848.6,-22 854.6,-16 860.6,-16 860.6,-16 1009.4,-16 1009.4,-16 1015.4,-16 1021.4,-22 1021.4,-28 1021.4,-28 1021.4,-54.1 1021.4,-54.1 1021.4,-60.1 1015.4,-66.1 1009.4,-66.1"/>
<text xml:space="preserve" text-anchor="middle" x="935" y="-45.8" font-family="Comic Sans MS" font-size="10.00">MediaPipe</text>
<text xml:space="preserve" text-anchor="middle" x="935" y="-31.55" font-family="Comic Sans MS" font-size="10.00">Tasks GenAI 0.10.24</text>
</g>
<!-- llm&#45;&gt;mediapipe -->
<g id="edge15" class="edge">
<title>llm&#45;&gt;mediapipe</title>
<path fill="none" stroke="#527fff" stroke-width="1.5" d="M935,-179.6C935,-152.67 935,-109.58 935,-78.8"/>
<polygon fill="#527fff" stroke="#527fff" stroke-width="1.5" points="938.5,-79.13 935,-69.13 931.5,-79.13 938.5,-79.13"/>
<text xml:space="preserve" text-anchor="middle" x="955.25" y="-136.05" font-family="Comic Sans MS" font-size="9.00" fill="#2c3e50">inference</text>
</g>
<!-- accelerate -->
<g id="node13" class="node">
<title>accelerate</title>
<path fill="#ffe0b2" stroke="#2c3e50" stroke-width="2" d="M1232.4,-66.1C1232.4,-66.1 1083.6,-66.1 1083.6,-66.1 1077.6,-66.1 1071.6,-60.1 1071.6,-54.1 1071.6,-54.1 1071.6,-28 1071.6,-28 1071.6,-22 1077.6,-16 1083.6,-16 1083.6,-16 1232.4,-16 1232.4,-16 1238.4,-16 1244.4,-22 1244.4,-28 1244.4,-28 1244.4,-54.1 1244.4,-54.1 1244.4,-60.1 1238.4,-66.1 1232.4,-66.1"/>
<text xml:space="preserve" text-anchor="middle" x="1158" y="-45.8" font-family="Comic Sans MS" font-size="10.00">Accelerate</text>
<text xml:space="preserve" text-anchor="middle" x="1158" y="-31.55" font-family="Comic Sans MS" font-size="10.00">vImage (ARM64)</text>
</g>
<!-- llm&#45;&gt;accelerate -->
<g id="edge16" class="edge">
<title>llm&#45;&gt;accelerate</title>
<path fill="none" stroke="#527fff" stroke-width="1.5" d="M969.36,-179.6C1008.26,-151.23 1071.76,-104.94 1114.19,-73.99"/>
<polygon fill="#527fff" stroke="#527fff" stroke-width="1.5" points="1116.12,-76.92 1122.14,-68.2 1112,-71.26 1116.12,-76.92"/>
<text xml:space="preserve" text-anchor="middle" x="1053.77" y="-136.05" font-family="Comic Sans MS" font-size="9.00" fill="#2c3e50">downscale</text>
</g>
<!-- zip -->
<g id="node14" class="node">
<title>zip</title>
<path fill="#ffe0b2" stroke="#2c3e50" stroke-width="2" d="M786.4,-66.1C786.4,-66.1 637.6,-66.1 637.6,-66.1 631.6,-66.1 625.6,-60.1 625.6,-54.1 625.6,-54.1 625.6,-28 625.6,-28 625.6,-22 631.6,-16 637.6,-16 637.6,-16 786.4,-16 786.4,-16 792.4,-16 798.4,-22 798.4,-28 798.4,-28 798.4,-54.1 798.4,-54.1 798.4,-60.1 792.4,-66.1 786.4,-66.1"/>
<text xml:space="preserve" text-anchor="middle" x="712" y="-45.8" font-family="Comic Sans MS" font-size="10.00">ZIPFoundation</text>
<text xml:space="preserve" text-anchor="middle" x="712" y="-31.55" font-family="Comic Sans MS" font-size="10.00">Vision Extract</text>
</g>
<!-- llm&#45;&gt;zip -->
<g id="edge17" class="edge">
<title>llm&#45;&gt;zip</title>
<path fill="none" stroke="#527fff" stroke-width="1.5" d="M900.64,-179.6C861.74,-151.23 798.24,-104.94 755.81,-73.99"/>
<polygon fill="#527fff" stroke="#527fff" stroke-width="1.5" points="758,-71.26 747.86,-68.2 753.88,-76.92 758,-71.26"/>
<text xml:space="preserve" text-anchor="middle" x="866.53" y="-136.05" font-family="Comic Sans MS" font-size="9.00" fill="#2c3e50">extract</text>
</g>
<!-- renderer&#45;&gt;generate -->
<g id="edge8" class="edge">
<title>renderer&#45;&gt;generate</title>
<path fill="none" stroke="#9c27b0" stroke-width="1.5" stroke-dasharray="5,2" d="M908.31,-409.63C886.14,-429.23 852.72,-454.63 818,-465.8 771.68,-480.71 458.67,-484.31 407,-465.8 379.65,-456 353.97,-435.89 334.97,-418.04"/>
<polygon fill="#9c27b0" stroke="#9c27b0" stroke-width="1.5" points="337.43,-415.55 327.82,-411.09 332.55,-420.57 337.43,-415.55"/>
<text xml:space="preserve" text-anchor="middle" x="556" y="-485.5" font-family="Comic Sans MS" font-size="9.00" fill="#2c3e50">PDF</text>
</g>
<!-- downloader&#45;&gt;llm -->
<g id="edge14" class="edge">
<title>downloader&#45;&gt;llm</title>
<path fill="none" stroke="#ff9800" stroke-width="1.5" stroke-dasharray="5,2" d="M1126.52,-357.89C1087.12,-326.78 1019.54,-273.41 976.1,-239.1"/>
<polygon fill="#ff9800" stroke="#ff9800" stroke-width="1.5" points="978.48,-236.52 968.46,-233.07 974.14,-242.02 978.48,-236.52"/>
<text xml:space="preserve" text-anchor="middle" x="1091.5" y="-314.15" font-family="Comic Sans MS" font-size="9.00" fill="#2c3e50">model</text>
<text xml:space="preserve" text-anchor="middle" x="1091.5" y="-300.65" font-family="Comic Sans MS" font-size="9.00" fill="#2c3e50">files</text>
</g>
<!-- generation -->
<g id="node10" class="node">
<title>generation</title>
<path fill="#a5d6a7" stroke="#2c3e50" stroke-width="2" d="M417.2,-66.1C417.2,-66.1 282.8,-66.1 282.8,-66.1 276.8,-66.1 270.8,-60.1 270.8,-54.1 270.8,-54.1 270.8,-28 270.8,-28 270.8,-22 276.8,-16 282.8,-16 282.8,-16 417.2,-16 417.2,-16 423.2,-16 429.2,-22 429.2,-28 429.2,-28 429.2,-54.1 429.2,-54.1 429.2,-60.1 423.2,-66.1 417.2,-66.1"/>
<text xml:space="preserve" text-anchor="middle" x="350" y="-45.8" font-family="Comic Sans MS" font-size="10.00">Generation Model</text>
<text xml:space="preserve" text-anchor="middle" x="350" y="-31.55" font-family="Comic Sans MS" font-size="10.00">LaTeX + Images</text>
</g>
<!-- storage&#45;&gt;generation -->
<g id="edge11" class="edge">
<title>storage&#45;&gt;generation</title>
<path fill="none" stroke="#2c3e50" stroke-width="1.5" d="M235.8,-179.6C258.86,-151.83 296.17,-106.88 321.84,-75.97"/>
<polygon fill="#2c3e50" stroke="#2c3e50" stroke-width="1.5" points="324.25,-78.54 327.95,-68.61 318.87,-74.07 324.25,-78.54"/>
<text xml:space="preserve" text-anchor="middle" x="289.42" y="-136.05" font-family="Comic Sans MS" font-size="9.00" fill="#2c3e50">manage</text>
</g>
<!-- refinement -->
<g id="node11" class="node">
<title>refinement</title>
<path fill="#a5d6a7" stroke="#2c3e50" stroke-width="2" d="M209.2,-66.1C209.2,-66.1 74.8,-66.1 74.8,-66.1 68.8,-66.1 62.8,-60.1 62.8,-54.1 62.8,-54.1 62.8,-28 62.8,-28 62.8,-22 68.8,-16 74.8,-16 74.8,-16 209.2,-16 209.2,-16 215.2,-16 221.2,-22 221.2,-28 221.2,-28 221.2,-54.1 221.2,-54.1 221.2,-60.1 215.2,-66.1 209.2,-66.1"/>
<text xml:space="preserve" text-anchor="middle" x="142" y="-45.8" font-family="Comic Sans MS" font-size="10.00">RefinementEntry</text>
<text xml:space="preserve" text-anchor="middle" x="142" y="-31.55" font-family="Comic Sans MS" font-size="10.00">Feedback History</text>
</g>
<!-- storage&#45;&gt;refinement -->
<g id="edge12" class="edge">
<title>storage&#45;&gt;refinement</title>
<path fill="none" stroke="#2c3e50" stroke-width="1.5" d="M203.75,-179.6C191.55,-152.43 171.97,-108.81 158.13,-77.99"/>
<polygon fill="#2c3e50" stroke="#2c3e50" stroke-width="1.5" points="161.36,-76.62 154.07,-68.93 154.97,-79.49 161.36,-76.62"/>
<text xml:space="preserve" text-anchor="middle" x="202.19" y="-136.05" font-family="Comic Sans MS" font-size="9.00" fill="#2c3e50">manage</text>
</g>
</g>
</svg>
