<?xml version="1.0" encoding="UTF-8" standalone="no"?>
<!DOCTYPE svg PUBLIC "-//W3C//DTD SVG 1.1//EN"
 "http://www.w3.org/Graphics/SVG/1.1/DTD/svg11.dtd">
<!-- Generated by graphviz version 14.0.1 (20251006.0113)
 -->
<!-- Title: ARM64_Optimizations Pages: 1 -->
<svg width="8113pt" height="3062pt"
 viewBox="0.00 0.00 8113.00 3062.00" xmlns="http://www.w3.org/2000/svg" xmlns:xlink="http://www.w3.org/1999/xlink">
<g id="graph0" class="graph" transform="scale(4.16667 4.16667) rotate(0) translate(4 731)">
<title>ARM64_Optimizations</title>
<polygon fill="white" stroke="none" points="-4,4 -4,-731 1943,-731 1943,4 -4,4"/>
<g id="clust1" class="cluster">
<title>cluster_vimage</title>
<path fill="white" stroke="#ff6b35" stroke-dasharray="5,2" d="M20,-171.35C20,-171.35 193,-171.35 193,-171.35 199,-171.35 205,-177.35 205,-183.35 205,-183.35 205,-707 205,-707 205,-713 199,-719 193,-719 193,-719 20,-719 20,-719 14,-719 8,-713 8,-707 8,-707 8,-183.35 8,-183.35 8,-177.35 14,-171.35 20,-171.35"/>
<text xml:space="preserve" text-anchor="middle" x="106.5" y="-704.55" font-family="Comic Sans MS" font-size="11.00" fill="#2c3e50">vImage Preprocessing (Accelerate)</text>
</g>
<g id="clust2" class="cluster">
<title>cluster_quant</title>
<path fill="white" stroke="#9c27b0" stroke-dasharray="5,2" d="M236,-8C236,-8 400,-8 400,-8 406,-8 412,-14 412,-20 412,-20 412,-413.3 412,-413.3 412,-419.3 406,-425.3 400,-425.3 400,-425.3 236,-425.3 236,-425.3 230,-425.3 224,-419.3 224,-413.3 224,-413.3 224,-20 224,-20 224,-14 230,-8 236,-8"/>
<text xml:space="preserve" text-anchor="middle" x="318" y="-410.85" font-family="Comic Sans MS" font-size="11.00" fill="#2c3e50">Model Quantization</text>
</g>
<g id="clust3" class="cluster">
<title>cluster_perf</title>
<path fill="white" stroke="#0066cc" stroke-dasharray="5,2" d="M881,-327.57C881,-327.57 1405,-327.57 1405,-327.57 1411,-327.57 1417,-333.57 1417,-339.57 1417,-339.57 1417,-566.9 1417,-566.9 1417,-572.9 1411,-578.9 1405,-578.9 1405,-578.9 881,-578.9 881,-578.9 875,-578.9 869,-572.9 869,-566.9 869,-566.9 869,-339.57 869,-339.57 869,-333.57 875,-327.57 881,-327.57"/>
<text xml:space="preserve" text-anchor="middle" x="1143" y="-564.45" font-family="Comic Sans MS" font-size="11.00" fill="#2c3e50">Performance Mode Tuning</text>
</g>
<g id="clust4" class="cluster">
<title>cluster_thermal</title>
<path fill="white" stroke="#e91e63" stroke-dasharray="5,2" d="M246,-488.3C246,-488.3 849,-488.3 849,-488.3 855,-488.3 861,-494.3 861,-500.3 861,-500.3 861,-707 861,-707 861,-713 855,-719 849,-719 849,-719 246,-719 246,-719 240,-719 234,-713 234,-707 234,-707 234,-500.3 234,-500.3 234,-494.3 240,-488.3 246,-488.3"/>
<text xml:space="preserve" text-anchor="middle" x="547.5" y="-704.55" font-family="Comic Sans MS" font-size="11.00" fill="#2c3e50">Thermal Management</text>
</g>
<g id="clust5" class="cluster">
<title>cluster_metrics</title>
<path fill="white" stroke="#4caf50" stroke-dasharray="5,2" d="M1437,-488.3C1437,-488.3 1919,-488.3 1919,-488.3 1925,-488.3 1931,-494.3 1931,-500.3 1931,-500.3 1931,-707 1931,-707 1931,-713 1925,-719 1919,-719 1919,-719 1437,-719 1437,-719 1431,-719 1425,-713 1425,-707 1425,-707 1425,-500.3 1425,-500.3 1425,-494.3 1431,-488.3 1437,-488.3"/>
<text xml:space="preserve" text-anchor="middle" x="1678" y="-704.55" font-family="Comic Sans MS" font-size="11.00" fill="#2c3e50">Real&#45;Time Metrics</text>
</g>
<!-- input -->
<g id="node1" class="node">
<title>input</title>
<path fill="#ffe0b2" stroke="#2c3e50" stroke-width="2" d="M166,-686.5C166,-686.5 46,-686.5 46,-686.5 40,-686.5 34,-680.5 34,-674.5 34,-674.5 34,-648.4 34,-648.4 34,-642.4 40,-636.4 46,-636.4 46,-636.4 166,-636.4 166,-636.4 172,-636.4 178,-642.4 178,-648.4 178,-648.4 178,-674.5 178,-674.5 178,-680.5 172,-686.5 166,-686.5"/>
<text xml:space="preserve" text-anchor="middle" x="106" y="-666.2" font-family="Comic Sans MS" font-size="10.00">Input Images</text>
<text xml:space="preserve" text-anchor="middle" x="106" y="-651.95" font-family="Comic Sans MS" font-size="10.00">up to 10</text>
</g>
<!-- taskgroup -->
<g id="node2" class="node">
<title>taskgroup</title>
<path fill="#ffcc80" stroke="#2c3e50" stroke-width="2" d="M180.4,-546.4C180.4,-546.4 31.6,-546.4 31.6,-546.4 25.6,-546.4 19.6,-540.4 19.6,-534.4 19.6,-534.4 19.6,-508.3 19.6,-508.3 19.6,-502.3 25.6,-496.3 31.6,-496.3 31.6,-496.3 180.4,-496.3 180.4,-496.3 186.4,-496.3 192.4,-502.3 192.4,-508.3 192.4,-508.3 192.4,-534.4 192.4,-534.4 192.4,-540.4 186.4,-546.4 180.4,-546.4"/>
<text xml:space="preserve" text-anchor="middle" x="106" y="-526.1" font-family="Comic Sans MS" font-size="10.00">Parallel TaskGroup</text>
<text xml:space="preserve" text-anchor="middle" x="106" y="-511.85" font-family="Comic Sans MS" font-size="10.00">Priority: userInitiated</text>
</g>
<!-- input&#45;&gt;taskgroup -->
<g id="edge1" class="edge">
<title>input&#45;&gt;taskgroup</title>
<path fill="none" stroke="#ff6b35" stroke-width="1.5" d="M106,-635.44C106,-614.23 106,-583.49 106,-559.41"/>
<polygon fill="#ff6b35" stroke="#ff6b35" stroke-width="1.5" points="109.5,-559.44 106,-549.44 102.5,-559.44 109.5,-559.44"/>
<text xml:space="preserve" text-anchor="middle" x="127" y="-591.85" font-family="Comic Sans MS" font-size="9.00" fill="#2c3e50">parallelize</text>
</g>
<!-- vimage_scale -->
<g id="node3" class="node">
<title>vimage_scale</title>
<path fill="#ffb74d" stroke="#2c3e50" stroke-width="2" d="M180.4,-385.68C180.4,-385.68 31.6,-385.68 31.6,-385.68 25.6,-385.68 19.6,-379.68 19.6,-373.68 19.6,-373.68 19.6,-347.57 19.6,-347.57 19.6,-341.57 25.6,-335.57 31.6,-335.57 31.6,-335.57 180.4,-335.57 180.4,-335.57 186.4,-335.57 192.4,-341.57 192.4,-347.57 192.4,-347.57 192.4,-373.68 192.4,-373.68 192.4,-379.68 186.4,-385.68 180.4,-385.68"/>
<text xml:space="preserve" text-anchor="middle" x="106" y="-365.38" font-family="Comic Sans MS" font-size="10.00">vImageScale_ARGB8888</text>
<text xml:space="preserve" text-anchor="middle" x="106" y="-351.12" font-family="Comic Sans MS" font-size="10.00">ARM NEON SIMD</text>
</g>
<!-- taskgroup&#45;&gt;vimage_scale -->
<g id="edge2" class="edge">
<title>taskgroup&#45;&gt;vimage_scale</title>
<path fill="none" stroke="#ff6b35" stroke-width="2.5" d="M106,-495.55C106,-470 106,-429.82 106,-400.13"/>
<polygon fill="#ff6b35" stroke="#ff6b35" stroke-width="2.5" points="109.5,-400.3 106,-390.3 102.5,-400.3 109.5,-400.3"/>
<text xml:space="preserve" text-anchor="middle" x="121.75" y="-451.75" font-family="Comic Sans MS" font-size="9.00" fill="#2c3e50">ARM64</text>
<text xml:space="preserve" text-anchor="middle" x="121.75" y="-438.25" font-family="Comic Sans MS" font-size="9.00" fill="#2c3e50">SIMD</text>
</g>
<!-- output -->
<g id="node4" class="node">
<title>output</title>
<path fill="#ffa726" stroke="#2c3e50" stroke-width="2" d="M180.4,-229.45C180.4,-229.45 31.6,-229.45 31.6,-229.45 25.6,-229.45 19.6,-223.45 19.6,-217.45 19.6,-217.45 19.6,-191.35 19.6,-191.35 19.6,-185.35 25.6,-179.35 31.6,-179.35 31.6,-179.35 180.4,-179.35 180.4,-179.35 186.4,-179.35 192.4,-185.35 192.4,-191.35 192.4,-191.35 192.4,-217.45 192.4,-217.45 192.4,-223.45 186.4,-229.45 180.4,-229.45"/>
<text xml:space="preserve" text-anchor="middle" x="106" y="-209.15" font-family="Comic Sans MS" font-size="10.00" fill="white">Downscaled CGImage</text>
<text xml:space="preserve" text-anchor="middle" x="106" y="-194.9" font-family="Comic Sans MS" font-size="10.00" fill="white">30&#45;70% reduction</text>
</g>
<!-- vimage_scale&#45;&gt;output -->
<g id="edge3" class="edge">
<title>vimage_scale&#45;&gt;output</title>
<path fill="none" stroke="#ff6b35" stroke-width="2.5" d="M106,-334.85C106,-310.3 106,-272.35 106,-243.88"/>
<polygon fill="#ff6b35" stroke="#ff6b35" stroke-width="2.5" points="109.5,-244.16 106,-234.16 102.5,-244.16 109.5,-244.16"/>
<text xml:space="preserve" text-anchor="middle" x="119.12" y="-283.9" font-family="Comic Sans MS" font-size="9.00" fill="#2c3e50">fast</text>
<text xml:space="preserve" text-anchor="middle" x="119.12" y="-270.4" font-family="Comic Sans MS" font-size="9.00" fill="#2c3e50">resize</text>
</g>
<!-- compressed -->
<g id="node7" class="node">
<title>compressed</title>
<path fill="#ba68c8" stroke="#2c3e50" stroke-width="2" d="M392.4,-80.35C392.4,-80.35 243.6,-80.35 243.6,-80.35 237.6,-80.35 231.6,-74.35 231.6,-68.35 231.6,-68.35 231.6,-28 231.6,-28 231.6,-22 237.6,-16 243.6,-16 243.6,-16 392.4,-16 392.4,-16 398.4,-16 404.4,-22 404.4,-28 404.4,-28 404.4,-68.35 404.4,-68.35 404.4,-74.35 398.4,-80.35 392.4,-80.35"/>
<text xml:space="preserve" text-anchor="middle" x="318" y="-60.05" font-family="Comic Sans MS" font-size="10.00" fill="white">Gemma 3N INT4</text>
<text xml:space="preserve" text-anchor="middle" x="318" y="-45.8" font-family="Comic Sans MS" font-size="10.00" fill="white">~500MB (2B)</text>
<text xml:space="preserve" text-anchor="middle" x="318" y="-31.55" font-family="Comic Sans MS" font-size="10.00" fill="white">~900MB (4B)</text>
</g>
<!-- output&#45;&gt;compressed -->
<g id="edge16" class="edge">
<title>output&#45;&gt;compressed</title>
<path fill="none" stroke="#2c3e50" stroke-width="1.5" stroke-dasharray="5,2" d="M140.06,-178.62C173.62,-154.21 225.39,-116.55 264.45,-88.13"/>
<polygon fill="#2c3e50" stroke="#2c3e50" stroke-width="1.5" points="266.23,-91.17 272.26,-82.45 262.11,-85.51 266.23,-91.17"/>
<text xml:space="preserve" text-anchor="middle" x="246.44" y="-134.8" font-family="Comic Sans MS" font-size="9.00" fill="#2c3e50">feeds into</text>
<text xml:space="preserve" text-anchor="middle" x="246.44" y="-121.3" font-family="Comic Sans MS" font-size="9.00" fill="#2c3e50">inference</text>
</g>
<!-- fp16 -->
<g id="node5" class="node">
<title>fp16</title>
<path fill="#e1bee7" stroke="#2c3e50" stroke-width="2" d="M389.2,-392.8C389.2,-392.8 254.8,-392.8 254.8,-392.8 248.8,-392.8 242.8,-386.8 242.8,-380.8 242.8,-380.8 242.8,-340.45 242.8,-340.45 242.8,-334.45 248.8,-328.45 254.8,-328.45 254.8,-328.45 389.2,-328.45 389.2,-328.45 395.2,-328.45 401.2,-334.45 401.2,-340.45 401.2,-340.45 401.2,-380.8 401.2,-380.8 401.2,-386.8 395.2,-392.8 389.2,-392.8"/>
<text xml:space="preserve" text-anchor="middle" x="322" y="-372.5" font-family="Comic Sans MS" font-size="10.00">FP16 Model</text>
<text xml:space="preserve" text-anchor="middle" x="322" y="-358.25" font-family="Comic Sans MS" font-size="10.00">~2GB (2B)</text>
<text xml:space="preserve" text-anchor="middle" x="322" y="-344" font-family="Comic Sans MS" font-size="10.00">~3.6GB (4B)</text>
</g>
<!-- int4 -->
<g id="node6" class="node">
<title>int4</title>
<path fill="#ce93d8" stroke="#2c3e50" stroke-width="2" d="M389.2,-229.45C389.2,-229.45 254.8,-229.45 254.8,-229.45 248.8,-229.45 242.8,-223.45 242.8,-217.45 242.8,-217.45 242.8,-191.35 242.8,-191.35 242.8,-185.35 248.8,-179.35 254.8,-179.35 254.8,-179.35 389.2,-179.35 389.2,-179.35 395.2,-179.35 401.2,-185.35 401.2,-191.35 401.2,-191.35 401.2,-217.45 401.2,-217.45 401.2,-223.45 395.2,-229.45 389.2,-229.45"/>
<text xml:space="preserve" text-anchor="middle" x="322" y="-209.15" font-family="Comic Sans MS" font-size="10.00">INT4 Quantization</text>
<text xml:space="preserve" text-anchor="middle" x="322" y="-194.9" font-family="Comic Sans MS" font-size="10.00">4&#45;bit integers</text>
</g>
<!-- fp16&#45;&gt;int4 -->
<g id="edge4" class="edge">
<title>fp16&#45;&gt;int4</title>
<path fill="none" stroke="#9c27b0" stroke-width="2.5" d="M322,-327.67C322,-303.25 322,-269.51 322,-243.65"/>
<polygon fill="#9c27b0" stroke="#9c27b0" stroke-width="2.5" points="325.5,-243.99 322,-233.99 318.5,-243.99 325.5,-243.99"/>
<text xml:space="preserve" text-anchor="middle" x="339.25" y="-277.15" font-family="Comic Sans MS" font-size="9.00" fill="#2c3e50">quantize</text>
</g>
<!-- int4&#45;&gt;compressed -->
<g id="edge5" class="edge">
<title>int4&#45;&gt;compressed</title>
<path fill="none" stroke="#9c27b0" stroke-width="2.5" d="M321.36,-178.62C320.77,-156.07 319.89,-122.22 319.18,-94.78"/>
<polygon fill="#9c27b0" stroke="#9c27b0" stroke-width="2.5" points="322.68,-94.81 318.93,-84.9 315.69,-94.99 322.68,-94.81"/>
<text xml:space="preserve" text-anchor="middle" x="345.48" y="-134.8" font-family="Comic Sans MS" font-size="9.00" fill="#2c3e50">4x</text>
<text xml:space="preserve" text-anchor="middle" x="345.48" y="-121.3" font-family="Comic Sans MS" font-size="9.00" fill="#2c3e50">compression</text>
</g>
<!-- mode -->
<g id="node8" class="node">
<title>mode</title>
<path fill="#e8f4f8" stroke="#2c3e50" stroke-width="2" d="M1079.2,-546.4C1079.2,-546.4 944.8,-546.4 944.8,-546.4 938.8,-546.4 932.8,-540.4 932.8,-534.4 932.8,-534.4 932.8,-508.3 932.8,-508.3 932.8,-502.3 938.8,-496.3 944.8,-496.3 944.8,-496.3 1079.2,-496.3 1079.2,-496.3 1085.2,-496.3 1091.2,-502.3 1091.2,-508.3 1091.2,-508.3 1091.2,-534.4 1091.2,-534.4 1091.2,-540.4 1085.2,-546.4 1079.2,-546.4"/>
<text xml:space="preserve" text-anchor="middle" x="1012" y="-526.1" font-family="Comic Sans MS" font-size="10.00">Performance Mode</text>
<text xml:space="preserve" text-anchor="middle" x="1012" y="-511.85" font-family="Comic Sans MS" font-size="10.00">UserDefaults</text>
</g>
<!-- tokens -->
<g id="node9" class="node">
<title>tokens</title>
<path fill="#b3e0ff" stroke="#2c3e50" stroke-width="2" d="M1009,-385.68C1009,-385.68 889,-385.68 889,-385.68 883,-385.68 877,-379.68 877,-373.68 877,-373.68 877,-347.57 877,-347.57 877,-341.57 883,-335.57 889,-335.57 889,-335.57 1009,-335.57 1009,-335.57 1015,-335.57 1021,-341.57 1021,-347.57 1021,-347.57 1021,-373.68 1021,-373.68 1021,-379.68 1015,-385.68 1009,-385.68"/>
<text xml:space="preserve" text-anchor="middle" x="949" y="-365.38" font-family="Comic Sans MS" font-size="10.00">Max Tokens</text>
<text xml:space="preserve" text-anchor="middle" x="949" y="-351.12" font-family="Comic Sans MS" font-size="10.00">1200 / 2000</text>
</g>
<!-- mode&#45;&gt;tokens -->
<g id="edge6" class="edge">
<title>mode&#45;&gt;tokens</title>
<path fill="none" stroke="#0066cc" stroke-width="1.5" d="M974.28,-495.54C963.02,-485.99 952.08,-474.04 946,-460.3 937.47,-441.01 937.84,-417.47 940.51,-398.22"/>
<polygon fill="#0066cc" stroke="#0066cc" stroke-width="1.5" points="943.94,-398.96 942.16,-388.51 937.04,-397.79 943.94,-398.96"/>
<text xml:space="preserve" text-anchor="middle" x="965.5" y="-445" font-family="Comic Sans MS" font-size="9.00" fill="#2c3e50">configure</text>
</g>
<!-- size -->
<g id="node10" class="node">
<title>size</title>
<path fill="#b3e0ff" stroke="#2c3e50" stroke-width="2" d="M1203,-385.68C1203,-385.68 1083,-385.68 1083,-385.68 1077,-385.68 1071,-379.68 1071,-373.68 1071,-373.68 1071,-347.57 1071,-347.57 1071,-341.57 1077,-335.57 1083,-335.57 1083,-335.57 1203,-335.57 1203,-335.57 1209,-335.57 1215,-341.57 1215,-347.57 1215,-347.57 1215,-373.68 1215,-373.68 1215,-379.68 1209,-385.68 1203,-385.68"/>
<text xml:space="preserve" text-anchor="middle" x="1143" y="-365.38" font-family="Comic Sans MS" font-size="10.00">Image Size</text>
<text xml:space="preserve" text-anchor="middle" x="1143" y="-351.12" font-family="Comic Sans MS" font-size="10.00">1024 / 1536px</text>
</g>
<!-- mode&#45;&gt;size -->
<g id="edge7" class="edge">
<title>mode&#45;&gt;size</title>
<path fill="none" stroke="#0066cc" stroke-width="1.5" d="M1015.93,-495.51C1019.84,-476.94 1027.3,-451.7 1041,-433.3 1052.67,-417.63 1068.79,-404.1 1084.77,-393.15"/>
<polygon fill="#0066cc" stroke="#0066cc" stroke-width="1.5" points="1086.32,-396.32 1092.76,-387.91 1082.48,-390.46 1086.32,-396.32"/>
<text xml:space="preserve" text-anchor="middle" x="1060.5" y="-445" font-family="Comic Sans MS" font-size="9.00" fill="#2c3e50">configure</text>
</g>
<!-- mode&#45;&gt;size -->
<g id="edge17" class="edge">
<title>mode&#45;&gt;size</title>
<path fill="none" stroke="#2c3e50" stroke-width="1.5" stroke-dasharray="5,2" d="M1049.35,-495.48C1062.56,-485.55 1076.88,-473.36 1088,-460.3 1104.05,-441.45 1117.64,-417.2 1127.3,-397.46"/>
<polygon fill="#2c3e50" stroke="#2c3e50" stroke-width="1.5" points="1130.43,-399.02 1131.55,-388.48 1124.11,-396.02 1130.43,-399.02"/>
<text xml:space="preserve" text-anchor="middle" x="1122.34" y="-445" font-family="Comic Sans MS" font-size="9.00" fill="#2c3e50">affects</text>
</g>
<!-- sampling -->
<g id="node11" class="node">
<title>sampling</title>
<path fill="#b3e0ff" stroke="#2c3e50" stroke-width="2" d="M1397,-385.68C1397,-385.68 1277,-385.68 1277,-385.68 1271,-385.68 1265,-379.68 1265,-373.68 1265,-373.68 1265,-347.57 1265,-347.57 1265,-341.57 1271,-335.57 1277,-335.57 1277,-335.57 1397,-335.57 1397,-335.57 1403,-335.57 1409,-341.57 1409,-347.57 1409,-347.57 1409,-373.68 1409,-373.68 1409,-379.68 1403,-385.68 1397,-385.68"/>
<text xml:space="preserve" text-anchor="middle" x="1337" y="-365.38" font-family="Comic Sans MS" font-size="10.00">Sampling</text>
<text xml:space="preserve" text-anchor="middle" x="1337" y="-351.12" font-family="Comic Sans MS" font-size="10.00">topK/topP/temp</text>
</g>
<!-- mode&#45;&gt;sampling -->
<g id="edge8" class="edge">
<title>mode&#45;&gt;sampling</title>
<path fill="none" stroke="#0066cc" stroke-width="1.5" d="M1081.11,-495.39C1127.13,-477.85 1188.39,-452.69 1240,-425.3 1257.83,-415.84 1276.56,-404.03 1292.76,-393.16"/>
<polygon fill="#0066cc" stroke="#0066cc" stroke-width="1.5" points="1294.31,-396.33 1300.61,-387.82 1290.37,-390.55 1294.31,-396.33"/>
<text xml:space="preserve" text-anchor="middle" x="1241.71" y="-445" font-family="Comic Sans MS" font-size="9.00" fill="#2c3e50">configure</text>
</g>
<!-- monitor -->
<g id="node12" class="node">
<title>monitor</title>
<path fill="#f8bbd0" stroke="#2c3e50" stroke-width="2" d="M697.2,-686.5C697.2,-686.5 562.8,-686.5 562.8,-686.5 556.8,-686.5 550.8,-680.5 550.8,-674.5 550.8,-674.5 550.8,-648.4 550.8,-648.4 550.8,-642.4 556.8,-636.4 562.8,-636.4 562.8,-636.4 697.2,-636.4 697.2,-636.4 703.2,-636.4 709.2,-642.4 709.2,-648.4 709.2,-648.4 709.2,-674.5 709.2,-674.5 709.2,-680.5 703.2,-686.5 697.2,-686.5"/>
<text xml:space="preserve" text-anchor="middle" x="630" y="-666.2" font-family="Comic Sans MS" font-size="10.00">ProcessInfo</text>
<text xml:space="preserve" text-anchor="middle" x="630" y="-651.95" font-family="Comic Sans MS" font-size="10.00">.thermalState</text>
</g>
<!-- monitor&#45;&gt;mode -->
<g id="edge18" class="edge">
<title>monitor&#45;&gt;mode</title>
<path fill="none" stroke="#e91e63" stroke-width="1.5" stroke-dasharray="5,2" d="M708.68,-635.43C756.47,-619.89 818.55,-599.09 873,-578.9 895.47,-570.57 919.73,-560.93 941.6,-551.99"/>
<polygon fill="#e91e63" stroke="#e91e63" stroke-width="1.5" points="942.78,-555.29 950.7,-548.25 940.12,-548.81 942.78,-555.29"/>
<text xml:space="preserve" text-anchor="middle" x="860.76" y="-591.85" font-family="Comic Sans MS" font-size="9.00" fill="#2c3e50">adapts</text>
</g>
<!-- nominal -->
<g id="node13" class="node">
<title>nominal</title>
<path fill="#c8e6c9" stroke="#2c3e50" stroke-width="2" d="M345.6,-546.4C345.6,-546.4 254.4,-546.4 254.4,-546.4 248.4,-546.4 242.4,-540.4 242.4,-534.4 242.4,-534.4 242.4,-508.3 242.4,-508.3 242.4,-502.3 248.4,-496.3 254.4,-496.3 254.4,-496.3 345.6,-496.3 345.6,-496.3 351.6,-496.3 357.6,-502.3 357.6,-508.3 357.6,-508.3 357.6,-534.4 357.6,-534.4 357.6,-540.4 351.6,-546.4 345.6,-546.4"/>
<text xml:space="preserve" text-anchor="middle" x="300" y="-526.1" font-family="Comic Sans MS" font-size="10.00">Nominal</text>
<text xml:space="preserve" text-anchor="middle" x="300" y="-511.85" font-family="Comic Sans MS" font-size="10.00">Full Speed</text>
</g>
<!-- monitor&#45;&gt;nominal -->
<g id="edge9" class="edge">
<title>monitor&#45;&gt;nominal</title>
<path fill="none" stroke="#4caf50" stroke-width="1.5" d="M549.81,-640.39C500.09,-626.43 435.69,-605.55 382,-578.9 368.07,-571.98 353.8,-562.95 341.16,-554.13"/>
<polygon fill="#4caf50" stroke="#4caf50" stroke-width="1.5" points="343.42,-551.45 333.25,-548.48 339.34,-557.14 343.42,-551.45"/>
</g>
<!-- fair -->
<g id="node14" class="node">
<title>fair</title>
<path fill="#fff9c4" stroke="#2c3e50" stroke-width="2" d="M510.6,-546.4C510.6,-546.4 419.4,-546.4 419.4,-546.4 413.4,-546.4 407.4,-540.4 407.4,-534.4 407.4,-534.4 407.4,-508.3 407.4,-508.3 407.4,-502.3 413.4,-496.3 419.4,-496.3 419.4,-496.3 510.6,-496.3 510.6,-496.3 516.6,-496.3 522.6,-502.3 522.6,-508.3 522.6,-508.3 522.6,-534.4 522.6,-534.4 522.6,-540.4 516.6,-546.4 510.6,-546.4"/>
<text xml:space="preserve" text-anchor="middle" x="465" y="-526.1" font-family="Comic Sans MS" font-size="10.00">Fair</text>
<text xml:space="preserve" text-anchor="middle" x="465" y="-511.85" font-family="Comic Sans MS" font-size="10.00">+3°C</text>
</g>
<!-- monitor&#45;&gt;fair -->
<g id="edge10" class="edge">
<title>monitor&#45;&gt;fair</title>
<path fill="none" stroke="#ffc107" stroke-width="1.5" d="M600.12,-635.44C573.14,-612.86 533.26,-579.48 503.82,-554.84"/>
<polygon fill="#ffc107" stroke="#ffc107" stroke-width="1.5" points="506.31,-552.36 496.4,-548.63 501.82,-557.73 506.31,-552.36"/>
</g>
<!-- serious -->
<g id="node15" class="node">
<title>serious</title>
<path fill="#ffcc80" stroke="#2c3e50" stroke-width="2" d="M675.6,-546.4C675.6,-546.4 584.4,-546.4 584.4,-546.4 578.4,-546.4 572.4,-540.4 572.4,-534.4 572.4,-534.4 572.4,-508.3 572.4,-508.3 572.4,-502.3 578.4,-496.3 584.4,-496.3 584.4,-496.3 675.6,-496.3 675.6,-496.3 681.6,-496.3 687.6,-502.3 687.6,-508.3 687.6,-508.3 687.6,-534.4 687.6,-534.4 687.6,-540.4 681.6,-546.4 675.6,-546.4"/>
<text xml:space="preserve" text-anchor="middle" x="630" y="-526.1" font-family="Comic Sans MS" font-size="10.00">Serious</text>
<text xml:space="preserve" text-anchor="middle" x="630" y="-511.85" font-family="Comic Sans MS" font-size="10.00">+8°C</text>
</g>
<!-- monitor&#45;&gt;serious -->
<g id="edge11" class="edge">
<title>monitor&#45;&gt;serious</title>
<path fill="none" stroke="#ff9800" stroke-width="1.5" d="M630,-635.44C630,-614.23 630,-583.49 630,-559.41"/>
<polygon fill="#ff9800" stroke="#ff9800" stroke-width="1.5" points="633.5,-559.44 630,-549.44 626.5,-559.44 633.5,-559.44"/>
</g>
<!-- critical -->
<g id="node16" class="node">
<title>critical</title>
<path fill="#ffab91" stroke="#2c3e50" stroke-width="2" d="M840.6,-546.4C840.6,-546.4 749.4,-546.4 749.4,-546.4 743.4,-546.4 737.4,-540.4 737.4,-534.4 737.4,-534.4 737.4,-508.3 737.4,-508.3 737.4,-502.3 743.4,-496.3 749.4,-496.3 749.4,-496.3 840.6,-496.3 840.6,-496.3 846.6,-496.3 852.6,-502.3 852.6,-508.3 852.6,-508.3 852.6,-534.4 852.6,-534.4 852.6,-540.4 846.6,-546.4 840.6,-546.4"/>
<text xml:space="preserve" text-anchor="middle" x="795" y="-526.1" font-family="Comic Sans MS" font-size="10.00">Critical</text>
<text xml:space="preserve" text-anchor="middle" x="795" y="-511.85" font-family="Comic Sans MS" font-size="10.00">+12°C</text>
</g>
<!-- monitor&#45;&gt;critical -->
<g id="edge12" class="edge">
<title>monitor&#45;&gt;critical</title>
<path fill="none" stroke="#f44336" stroke-width="2" d="M659.88,-635.44C686.63,-613.05 726.05,-580.06 755.41,-555.48"/>
<polygon fill="#f44336" stroke="#f44336" stroke-width="2" points="757.6,-558.22 763.02,-549.12 753.11,-552.85 757.6,-558.22"/>
</g>
<!-- timer -->
<g id="node17" class="node">
<title>timer</title>
<path fill="#c8e6c9" stroke="#2c3e50" stroke-width="2" d="M1730.8,-686.5C1730.8,-686.5 1625.2,-686.5 1625.2,-686.5 1619.2,-686.5 1613.2,-680.5 1613.2,-674.5 1613.2,-674.5 1613.2,-648.4 1613.2,-648.4 1613.2,-642.4 1619.2,-636.4 1625.2,-636.4 1625.2,-636.4 1730.8,-636.4 1730.8,-636.4 1736.8,-636.4 1742.8,-642.4 1742.8,-648.4 1742.8,-648.4 1742.8,-674.5 1742.8,-674.5 1742.8,-680.5 1736.8,-686.5 1730.8,-686.5"/>
<text xml:space="preserve" text-anchor="middle" x="1678" y="-666.2" font-family="Comic Sans MS" font-size="10.00">Timer</text>
<text xml:space="preserve" text-anchor="middle" x="1678" y="-651.95" font-family="Comic Sans MS" font-size="10.00">1s interval</text>
</g>
<!-- memory -->
<g id="node18" class="node">
<title>memory</title>
<path fill="#a5d6a7" stroke="#2c3e50" stroke-width="2" d="M1550.8,-546.4C1550.8,-546.4 1445.2,-546.4 1445.2,-546.4 1439.2,-546.4 1433.2,-540.4 1433.2,-534.4 1433.2,-534.4 1433.2,-508.3 1433.2,-508.3 1433.2,-502.3 1439.2,-496.3 1445.2,-496.3 1445.2,-496.3 1550.8,-496.3 1550.8,-496.3 1556.8,-496.3 1562.8,-502.3 1562.8,-508.3 1562.8,-508.3 1562.8,-534.4 1562.8,-534.4 1562.8,-540.4 1556.8,-546.4 1550.8,-546.4"/>
<text xml:space="preserve" text-anchor="middle" x="1498" y="-526.1" font-family="Comic Sans MS" font-size="10.00">Memory</text>
<text xml:space="preserve" text-anchor="middle" x="1498" y="-511.85" font-family="Comic Sans MS" font-size="10.00">Resident MB</text>
</g>
<!-- timer&#45;&gt;memory -->
<g id="edge13" class="edge">
<title>timer&#45;&gt;memory</title>
<path fill="none" stroke="#4caf50" stroke-width="1.5" d="M1645.4,-635.44C1615.84,-612.76 1572.09,-579.2 1539.93,-554.52"/>
<polygon fill="#4caf50" stroke="#4caf50" stroke-width="1.5" points="1542.22,-551.87 1532.16,-548.55 1537.96,-557.42 1542.22,-551.87"/>
<text xml:space="preserve" text-anchor="middle" x="1605.53" y="-591.85" font-family="Comic Sans MS" font-size="9.00" fill="#2c3e50">poll</text>
</g>
<!-- cpu -->
<g id="node19" class="node">
<title>cpu</title>
<path fill="#a5d6a7" stroke="#2c3e50" stroke-width="2" d="M1730.8,-546.4C1730.8,-546.4 1625.2,-546.4 1625.2,-546.4 1619.2,-546.4 1613.2,-540.4 1613.2,-534.4 1613.2,-534.4 1613.2,-508.3 1613.2,-508.3 1613.2,-502.3 1619.2,-496.3 1625.2,-496.3 1625.2,-496.3 1730.8,-496.3 1730.8,-496.3 1736.8,-496.3 1742.8,-502.3 1742.8,-508.3 1742.8,-508.3 1742.8,-534.4 1742.8,-534.4 1742.8,-540.4 1736.8,-546.4 1730.8,-546.4"/>
<text xml:space="preserve" text-anchor="middle" x="1678" y="-526.1" font-family="Comic Sans MS" font-size="10.00">CPU Usage</text>
<text xml:space="preserve" text-anchor="middle" x="1678" y="-511.85" font-family="Comic Sans MS" font-size="10.00">%</text>
</g>
<!-- timer&#45;&gt;cpu -->
<g id="edge14" class="edge">
<title>timer&#45;&gt;cpu</title>
<path fill="none" stroke="#4caf50" stroke-width="1.5" d="M1678,-635.44C1678,-614.23 1678,-583.49 1678,-559.41"/>
<polygon fill="#4caf50" stroke="#4caf50" stroke-width="1.5" points="1681.5,-559.44 1678,-549.44 1674.5,-559.44 1681.5,-559.44"/>
<text xml:space="preserve" text-anchor="middle" x="1684.75" y="-591.85" font-family="Comic Sans MS" font-size="9.00" fill="#2c3e50">poll</text>
</g>
<!-- battery -->
<g id="node20" class="node">
<title>battery</title>
<path fill="#a5d6a7" stroke="#2c3e50" stroke-width="2" d="M1910.8,-546.4C1910.8,-546.4 1805.2,-546.4 1805.2,-546.4 1799.2,-546.4 1793.2,-540.4 1793.2,-534.4 1793.2,-534.4 1793.2,-508.3 1793.2,-508.3 1793.2,-502.3 1799.2,-496.3 1805.2,-496.3 1805.2,-496.3 1910.8,-496.3 1910.8,-496.3 1916.8,-496.3 1922.8,-502.3 1922.8,-508.3 1922.8,-508.3 1922.8,-534.4 1922.8,-534.4 1922.8,-540.4 1916.8,-546.4 1910.8,-546.4"/>
<text xml:space="preserve" text-anchor="middle" x="1858" y="-526.1" font-family="Comic Sans MS" font-size="10.00">Battery</text>
<text xml:space="preserve" text-anchor="middle" x="1858" y="-511.85" font-family="Comic Sans MS" font-size="10.00">Impact</text>
</g>
<!-- timer&#45;&gt;battery -->
<g id="edge15" class="edge">
<title>timer&#45;&gt;battery</title>
<path fill="none" stroke="#4caf50" stroke-width="1.5" d="M1710.6,-635.44C1740.16,-612.76 1783.91,-579.2 1816.07,-554.52"/>
<polygon fill="#4caf50" stroke="#4caf50" stroke-width="1.5" points="1818.04,-557.42 1823.84,-548.55 1813.78,-551.87 1818.04,-557.42"/>
<text xml:space="preserve" text-anchor="middle" x="1780.15" y="-591.85" font-family="Comic Sans MS" font-size="9.00" fill="#2c3e50">poll</text>
</g>
</g>
</svg>
