<?xml version="1.0" encoding="UTF-8" standalone="no"?>
<!DOCTYPE svg PUBLIC "-//W3C//DTD SVG 1.1//EN"
 "http://www.w3.org/Graphics/SVG/1.1/DTD/svg11.dtd">
<!-- Generated by graphviz version 14.0.1 (20251006.0113)
 -->
<!-- Title: Data_Flow Pages: 1 -->
<svg width="4870pt" height="7676pt"
 viewBox="0.00 0.00 4870.00 7676.00" xmlns="http://www.w3.org/2000/svg" xmlns:xlink="http://www.w3.org/1999/xlink">
<g id="graph0" class="graph" transform="scale(4.16667 4.16667) rotate(0) translate(4 1838.3)">
<title>Data_Flow</title>
<polygon fill="white" stroke="none" points="-4,4 -4,-1838.3 1164.84,-1838.3 1164.84,4 -4,4"/>
<g id="clust1" class="cluster">
<title>cluster_gen</title>
<path fill="white" stroke="#0066cc" stroke-dasharray="5,2" d="M37.84,-397.25C37.84,-397.25 201.84,-397.25 201.84,-397.25 207.84,-397.25 213.84,-403.25 213.84,-409.25 213.84,-409.25 213.84,-1029.2 213.84,-1029.2 213.84,-1035.2 207.84,-1041.2 201.84,-1041.2 201.84,-1041.2 37.84,-1041.2 37.84,-1041.2 31.84,-1041.2 25.84,-1035.2 25.84,-1029.2 25.84,-1029.2 25.84,-409.25 25.84,-409.25 25.84,-403.25 31.84,-397.25 37.84,-397.25"/>
<text xml:space="preserve" text-anchor="middle" x="119.84" y="-1026.75" font-family="Comic Sans MS" font-size="11.00" fill="#2c3e50">Path 1: Image → LaTeX → PDF</text>
</g>
<g id="clust2" class="cluster">
<title>cluster_refine</title>
<path fill="white" stroke="#9c27b0" stroke-dasharray="5,2" d="M233.84,-397.25C233.84,-397.25 584.84,-397.25 584.84,-397.25 590.84,-397.25 596.84,-403.25 596.84,-409.25 596.84,-409.25 596.84,-749 596.84,-749 596.84,-755 590.84,-761 584.84,-761 584.84,-761 233.84,-761 233.84,-761 227.84,-761 221.84,-755 221.84,-749 221.84,-749 221.84,-409.25 221.84,-409.25 221.84,-403.25 227.84,-397.25 233.84,-397.25"/>
<text xml:space="preserve" text-anchor="middle" x="409.34" y="-746.55" font-family="Comic Sans MS" font-size="11.00" fill="#2c3e50">Path 2: LaTeX Refinement</text>
</g>
<g id="clust3" class="cluster">
<title>cluster_model</title>
<path fill="white" stroke="#ff9800" stroke-dasharray="5,2" d="M233.84,-950.6C233.84,-950.6 397.84,-950.6 397.84,-950.6 403.84,-950.6 409.84,-956.6 409.84,-962.6 409.84,-962.6 409.84,-1814.3 409.84,-1814.3 409.84,-1820.3 403.84,-1826.3 397.84,-1826.3 397.84,-1826.3 233.84,-1826.3 233.84,-1826.3 227.84,-1826.3 221.84,-1820.3 221.84,-1814.3 221.84,-1814.3 221.84,-962.6 221.84,-962.6 221.84,-956.6 227.84,-950.6 233.84,-950.6"/>
<text xml:space="preserve" text-anchor="middle" x="315.84" y="-1811.85" font-family="Comic Sans MS" font-size="11.00" fill="#2c3e50">Path 3: Model Management</text>
</g>
<g id="clust4" class="cluster">
<title>cluster_storage</title>
<path fill="white" stroke="#4caf50" stroke-dasharray="5,2" d="M419.84,-8C419.84,-8 809.84,-8 809.84,-8 815.84,-8 821.84,-14 821.84,-20 821.84,-20 821.84,-331.7 821.84,-331.7 821.84,-337.7 815.84,-343.7 809.84,-343.7 809.84,-343.7 419.84,-343.7 419.84,-343.7 413.84,-343.7 407.84,-337.7 407.84,-331.7 407.84,-331.7 407.84,-20 407.84,-20 407.84,-14 413.84,-8 419.84,-8"/>
<text xml:space="preserve" text-anchor="middle" x="614.84" y="-329.25" font-family="Comic Sans MS" font-size="11.00" fill="#2c3e50">SwiftData Storage</text>
</g>
<g id="clust5" class="cluster">
<title>cluster_history</title>
<path fill="white" stroke="#e91e63" stroke-dasharray="5,2" d="M616.84,-390.2C616.84,-390.2 1140.84,-390.2 1140.84,-390.2 1146.84,-390.2 1152.84,-396.2 1152.84,-402.2 1152.84,-402.2 1152.84,-468.8 1152.84,-468.8 1152.84,-474.8 1146.84,-480.8 1140.84,-480.8 1140.84,-480.8 616.84,-480.8 616.84,-480.8 610.84,-480.8 604.84,-474.8 604.84,-468.8 604.84,-468.8 604.84,-402.2 604.84,-402.2 604.84,-396.2 610.84,-390.2 616.84,-390.2"/>
<text xml:space="preserve" text-anchor="middle" x="878.84" y="-466.35" font-family="Comic Sans MS" font-size="11.00" fill="#2c3e50">Path 4: History Access</text>
</g>
<!-- input -->
<g id="node1" class="node">
<title>input</title>
<path fill="#e8f4f8" stroke="#2c3e50" stroke-width="2" d="M179.84,-1008.7C179.84,-1008.7 59.84,-1008.7 59.84,-1008.7 53.84,-1008.7 47.84,-1002.7 47.84,-996.7 47.84,-996.7 47.84,-970.6 47.84,-970.6 47.84,-964.6 53.84,-958.6 59.84,-958.6 59.84,-958.6 179.84,-958.6 179.84,-958.6 185.84,-958.6 191.84,-964.6 191.84,-970.6 191.84,-970.6 191.84,-996.7 191.84,-996.7 191.84,-1002.7 185.84,-1008.7 179.84,-1008.7"/>
<text xml:space="preserve" text-anchor="middle" x="119.84" y="-988.4" font-family="Comic Sans MS" font-size="10.00">User Input</text>
<text xml:space="preserve" text-anchor="middle" x="119.84" y="-974.15" font-family="Comic Sans MS" font-size="10.00">Photos/Camera</text>
</g>
<!-- llm_gen -->
<g id="node2" class="node">
<title>llm_gen</title>
<path fill="#b3e0ff" stroke="#2c3e50" stroke-width="2" d="M194.24,-865.6C194.24,-865.6 45.44,-865.6 45.44,-865.6 39.44,-865.6 33.44,-859.6 33.44,-853.6 33.44,-853.6 33.44,-827.5 33.44,-827.5 33.44,-821.5 39.44,-815.5 45.44,-815.5 45.44,-815.5 194.24,-815.5 194.24,-815.5 200.24,-815.5 206.24,-821.5 206.24,-827.5 206.24,-827.5 206.24,-853.6 206.24,-853.6 206.24,-859.6 200.24,-865.6 194.24,-865.6"/>
<text xml:space="preserve" text-anchor="middle" x="119.84" y="-845.3" font-family="Comic Sans MS" font-size="10.00">OnDeviceLLMService</text>
<text xml:space="preserve" text-anchor="middle" x="119.84" y="-831.05" font-family="Comic Sans MS" font-size="10.00">.generateLaTeX()</text>
</g>
<!-- input&#45;&gt;llm_gen -->
<g id="edge1" class="edge">
<title>input&#45;&gt;llm_gen</title>
<path fill="none" stroke="#0066cc" stroke-width="2.5" d="M119.84,-957.75C119.84,-936.19 119.84,-904.66 119.84,-879.88"/>
<polygon fill="#0066cc" stroke="#0066cc" stroke-width="2.5" points="123.34,-879.99 119.84,-869.99 116.34,-879.99 123.34,-879.99"/>
<text xml:space="preserve" text-anchor="middle" x="137.46" y="-910.3" font-family="Comic Sans MS" font-size="9.00" fill="#2c3e50">images[]</text>
</g>
<!-- latex -->
<g id="node3" class="node">
<title>latex</title>
<path fill="#90caf9" stroke="#2c3e50" stroke-width="2" d="M174.84,-721.45C174.84,-721.45 54.84,-721.45 54.84,-721.45 48.84,-721.45 42.84,-715.45 42.84,-709.45 42.84,-709.45 42.84,-697.45 42.84,-697.45 42.84,-691.45 48.84,-685.45 54.84,-685.45 54.84,-685.45 174.84,-685.45 174.84,-685.45 180.84,-685.45 186.84,-691.45 186.84,-697.45 186.84,-697.45 186.84,-709.45 186.84,-709.45 186.84,-715.45 180.84,-721.45 174.84,-721.45"/>
<text xml:space="preserve" text-anchor="middle" x="114.84" y="-701.07" font-family="Comic Sans MS" font-size="10.00">LaTeX String</text>
</g>
<!-- llm_gen&#45;&gt;latex -->
<g id="edge2" class="edge">
<title>llm_gen&#45;&gt;latex</title>
<path fill="none" stroke="#0066cc" stroke-width="2.5" d="M118.92,-814.77C118.1,-792.57 116.89,-759.88 116,-735.85"/>
<polygon fill="#0066cc" stroke="#0066cc" stroke-width="2.5" points="119.5,-735.83 115.63,-725.96 112.51,-736.09 119.5,-735.83"/>
<text xml:space="preserve" text-anchor="middle" x="132.64" y="-773.95" font-family="Comic Sans MS" font-size="9.00" fill="#2c3e50">stream</text>
</g>
<!-- hist_view -->
<g id="node20" class="node">
<title>hist_view</title>
<path fill="#f8bbd0" stroke="#2c3e50" stroke-width="2" d="M744.84,-441.25C744.84,-441.25 624.84,-441.25 624.84,-441.25 618.84,-441.25 612.84,-435.25 612.84,-429.25 612.84,-429.25 612.84,-417.25 612.84,-417.25 612.84,-411.25 618.84,-405.25 624.84,-405.25 624.84,-405.25 744.84,-405.25 744.84,-405.25 750.84,-405.25 756.84,-411.25 756.84,-417.25 756.84,-417.25 756.84,-429.25 756.84,-429.25 756.84,-435.25 750.84,-441.25 744.84,-441.25"/>
<text xml:space="preserve" text-anchor="middle" x="684.84" y="-420.88" font-family="Comic Sans MS" font-size="10.00">HistoryView</text>
</g>
<!-- llm_gen&#45;&gt;hist_view -->
<g id="edge25" class="edge">
<title>llm_gen&#45;&gt;hist_view</title>
<path fill="none" stroke="#2c3e50" stroke-width="1.5" stroke-dasharray="1,5" d="M207.19,-836.85C331.42,-831.18 550.37,-813.77 606.84,-761 618.26,-750.33 662.76,-533.96 678.92,-453.79"/>
<polygon fill="#2c3e50" stroke="#2c3e50" stroke-width="1.5" points="682.28,-454.87 680.82,-444.37 675.42,-453.49 682.28,-454.87"/>
<text xml:space="preserve" text-anchor="middle" x="657.31" y="-636.85" font-family="Comic Sans MS" font-size="9.00" fill="#2c3e50">metrics</text>
</g>
<!-- renderer -->
<g id="node4" class="node">
<title>renderer</title>
<path fill="#64b5f6" stroke="#2c3e50" stroke-width="2" d="M194.24,-598.9C194.24,-598.9 45.44,-598.9 45.44,-598.9 39.44,-598.9 33.44,-592.9 33.44,-586.9 33.44,-586.9 33.44,-560.8 33.44,-560.8 33.44,-554.8 39.44,-548.8 45.44,-548.8 45.44,-548.8 194.24,-548.8 194.24,-548.8 200.24,-548.8 206.24,-554.8 206.24,-560.8 206.24,-560.8 206.24,-586.9 206.24,-586.9 206.24,-592.9 200.24,-598.9 194.24,-598.9"/>
<text xml:space="preserve" text-anchor="middle" x="119.84" y="-578.6" font-family="Comic Sans MS" font-size="10.00">LaTeXRenderer</text>
<text xml:space="preserve" text-anchor="middle" x="119.84" y="-564.35" font-family="Comic Sans MS" font-size="10.00">.renderLaTeXToPDF()</text>
</g>
<!-- latex&#45;&gt;renderer -->
<g id="edge3" class="edge">
<title>latex&#45;&gt;renderer</title>
<path fill="none" stroke="#0066cc" stroke-width="1.5" d="M115.53,-684.71C116.26,-666.02 117.44,-636.03 118.38,-612.11"/>
<polygon fill="#0066cc" stroke="#0066cc" stroke-width="1.5" points="121.87,-612.3 118.77,-602.17 114.88,-612.02 121.87,-612.3"/>
<text xml:space="preserve" text-anchor="middle" x="139.61" y="-636.85" font-family="Comic Sans MS" font-size="9.00" fill="#2c3e50">on&#45;demand</text>
</g>
<!-- mgr -->
<g id="node17" class="node">
<title>mgr</title>
<path fill="#c8e6c9" stroke="#2c3e50" stroke-width="2" d="M612.84,-311.2C612.84,-311.2 492.84,-311.2 492.84,-311.2 486.84,-311.2 480.84,-305.2 480.84,-299.2 480.84,-299.2 480.84,-287.2 480.84,-287.2 480.84,-281.2 486.84,-275.2 492.84,-275.2 492.84,-275.2 612.84,-275.2 612.84,-275.2 618.84,-275.2 624.84,-281.2 624.84,-287.2 624.84,-287.2 624.84,-299.2 624.84,-299.2 624.84,-305.2 618.84,-311.2 612.84,-311.2"/>
<text xml:space="preserve" text-anchor="middle" x="552.84" y="-290.82" font-family="Comic Sans MS" font-size="10.00">StorageManager</text>
</g>
<!-- latex&#45;&gt;mgr -->
<g id="edge5" class="edge">
<title>latex&#45;&gt;mgr</title>
<path fill="none" stroke="#4caf50" stroke-width="2" d="M87.35,-684.48C62.32,-666.31 27.02,-635.7 11.84,-598.9 -10.51,-544.75 2.03,-425.98 36.84,-390.2 95.29,-330.11 336.28,-306.81 467.21,-298.45"/>
<polygon fill="#4caf50" stroke="#4caf50" stroke-width="2" points="467.13,-301.96 476.9,-297.85 466.7,-294.98 467.13,-301.96"/>
<text xml:space="preserve" text-anchor="middle" x="22.94" y="-500.5" font-family="Comic Sans MS" font-size="9.00" fill="#2c3e50">auto&#45;save</text>
</g>
<!-- pdf -->
<g id="node5" class="node">
<title>pdf</title>
<path fill="#42a5f5" stroke="#2c3e50" stroke-width="2" d="M189.84,-441.25C189.84,-441.25 69.84,-441.25 69.84,-441.25 63.84,-441.25 57.84,-435.25 57.84,-429.25 57.84,-429.25 57.84,-417.25 57.84,-417.25 57.84,-411.25 63.84,-405.25 69.84,-405.25 69.84,-405.25 189.84,-405.25 189.84,-405.25 195.84,-405.25 201.84,-411.25 201.84,-417.25 201.84,-417.25 201.84,-429.25 201.84,-429.25 201.84,-435.25 195.84,-441.25 189.84,-441.25"/>
<text xml:space="preserve" text-anchor="middle" x="129.84" y="-420.88" font-family="Comic Sans MS" font-size="10.00" fill="white">PDFDocument</text>
</g>
<!-- renderer&#45;&gt;pdf -->
<g id="edge4" class="edge">
<title>renderer&#45;&gt;pdf</title>
<path fill="none" stroke="#0066cc" stroke-width="1.5" d="M121.51,-547.98C123.25,-522.16 125.97,-481.76 127.82,-454.2"/>
<polygon fill="#0066cc" stroke="#0066cc" stroke-width="1.5" points="131.3,-454.66 128.48,-444.45 124.31,-454.19 131.3,-454.66"/>
<text xml:space="preserve" text-anchor="middle" x="139.69" y="-500.5" font-family="Comic Sans MS" font-size="9.00" fill="#2c3e50">create</text>
</g>
<!-- pdf&#45;&gt;mgr -->
<g id="edge6" class="edge">
<title>pdf&#45;&gt;mgr</title>
<path fill="none" stroke="#4caf50" stroke-width="2" d="M173.38,-404.32C185.72,-399.48 199.23,-394.43 211.84,-390.2 298.44,-361.16 399.32,-333.51 468.77,-315.41"/>
<polygon fill="#4caf50" stroke="#4caf50" stroke-width="2" points="469.63,-318.8 478.43,-312.9 467.87,-312.02 469.63,-318.8"/>
<text xml:space="preserve" text-anchor="middle" x="353.02" y="-356.65" font-family="Comic Sans MS" font-size="9.00" fill="#2c3e50">auto&#45;save</text>
</g>
<!-- existing -->
<g id="node6" class="node">
<title>existing</title>
<path fill="#e1bee7" stroke="#2c3e50" stroke-width="2" d="M376.04,-728.5C376.04,-728.5 241.64,-728.5 241.64,-728.5 235.64,-728.5 229.64,-722.5 229.64,-716.5 229.64,-716.5 229.64,-690.4 229.64,-690.4 229.64,-684.4 235.64,-678.4 241.64,-678.4 241.64,-678.4 376.04,-678.4 376.04,-678.4 382.04,-678.4 388.04,-684.4 388.04,-690.4 388.04,-690.4 388.04,-716.5 388.04,-716.5 388.04,-722.5 382.04,-728.5 376.04,-728.5"/>
<text xml:space="preserve" text-anchor="middle" x="308.84" y="-708.2" font-family="Comic Sans MS" font-size="10.00">Existing LaTeX</text>
<text xml:space="preserve" text-anchor="middle" x="308.84" y="-693.95" font-family="Comic Sans MS" font-size="10.00">from Generation</text>
</g>
<!-- llm_refine -->
<g id="node8" class="node">
<title>llm_refine</title>
<path fill="#ce93d8" stroke="#2c3e50" stroke-width="2" d="M572.24,-598.9C572.24,-598.9 423.44,-598.9 423.44,-598.9 417.44,-598.9 411.44,-592.9 411.44,-586.9 411.44,-586.9 411.44,-560.8 411.44,-560.8 411.44,-554.8 417.44,-548.8 423.44,-548.8 423.44,-548.8 572.24,-548.8 572.24,-548.8 578.24,-548.8 584.24,-554.8 584.24,-560.8 584.24,-560.8 584.24,-586.9 584.24,-586.9 584.24,-592.9 578.24,-598.9 572.24,-598.9"/>
<text xml:space="preserve" text-anchor="middle" x="497.84" y="-578.6" font-family="Comic Sans MS" font-size="10.00">OnDeviceLLMService</text>
<text xml:space="preserve" text-anchor="middle" x="497.84" y="-564.35" font-family="Comic Sans MS" font-size="10.00">.refineLaTeX()</text>
</g>
<!-- existing&#45;&gt;llm_refine -->
<g id="edge8" class="edge">
<title>existing&#45;&gt;llm_refine</title>
<path fill="none" stroke="#9c27b0" stroke-width="1.5" d="M345.73,-677.54C375.78,-657.26 418.4,-628.48 450.88,-606.55"/>
<polygon fill="#9c27b0" stroke="#9c27b0" stroke-width="1.5" points="452.83,-609.46 459.16,-600.96 448.91,-603.66 452.83,-609.46"/>
</g>
<!-- feedback -->
<g id="node7" class="node">
<title>feedback</title>
<path fill="#e1bee7" stroke="#2c3e50" stroke-width="2" d="M577.04,-728.5C577.04,-728.5 442.64,-728.5 442.64,-728.5 436.64,-728.5 430.64,-722.5 430.64,-716.5 430.64,-716.5 430.64,-690.4 430.64,-690.4 430.64,-684.4 436.64,-678.4 442.64,-678.4 442.64,-678.4 577.04,-678.4 577.04,-678.4 583.04,-678.4 589.04,-684.4 589.04,-690.4 589.04,-690.4 589.04,-716.5 589.04,-716.5 589.04,-722.5 583.04,-728.5 577.04,-728.5"/>
<text xml:space="preserve" text-anchor="middle" x="509.84" y="-708.2" font-family="Comic Sans MS" font-size="10.00">User Feedback</text>
<text xml:space="preserve" text-anchor="middle" x="509.84" y="-693.95" font-family="Comic Sans MS" font-size="10.00">Text Input</text>
</g>
<!-- feedback&#45;&gt;llm_refine -->
<g id="edge9" class="edge">
<title>feedback&#45;&gt;llm_refine</title>
<path fill="none" stroke="#9c27b0" stroke-width="1.5" d="M507.5,-677.54C505.74,-658.84 503.3,-632.92 501.31,-611.8"/>
<polygon fill="#9c27b0" stroke="#9c27b0" stroke-width="1.5" points="504.81,-611.58 500.39,-601.95 497.84,-612.24 504.81,-611.58"/>
</g>
<!-- refined -->
<g id="node9" class="node">
<title>refined</title>
<path fill="#ba68c8" stroke="#2c3e50" stroke-width="2" d="M557.84,-441.25C557.84,-441.25 437.84,-441.25 437.84,-441.25 431.84,-441.25 425.84,-435.25 425.84,-429.25 425.84,-429.25 425.84,-417.25 425.84,-417.25 425.84,-411.25 431.84,-405.25 437.84,-405.25 437.84,-405.25 557.84,-405.25 557.84,-405.25 563.84,-405.25 569.84,-411.25 569.84,-417.25 569.84,-417.25 569.84,-429.25 569.84,-429.25 569.84,-435.25 563.84,-441.25 557.84,-441.25"/>
<text xml:space="preserve" text-anchor="middle" x="497.84" y="-420.88" font-family="Comic Sans MS" font-size="10.00">Refined LaTeX</text>
</g>
<!-- llm_refine&#45;&gt;refined -->
<g id="edge10" class="edge">
<title>llm_refine&#45;&gt;refined</title>
<path fill="none" stroke="#9c27b0" stroke-width="2" d="M497.84,-547.98C497.84,-522.39 497.84,-482.49 497.84,-454.96"/>
<polygon fill="#9c27b0" stroke="#9c27b0" stroke-width="2" points="501.34,-455.21 497.84,-445.21 494.34,-455.21 501.34,-455.21"/>
<text xml:space="preserve" text-anchor="middle" x="518.09" y="-507.25" font-family="Comic Sans MS" font-size="9.00" fill="#2c3e50">text&#45;only</text>
<text xml:space="preserve" text-anchor="middle" x="518.09" y="-493.75" font-family="Comic Sans MS" font-size="9.00" fill="#2c3e50">inference</text>
</g>
<!-- llm_refine&#45;&gt;hist_view -->
<g id="edge26" class="edge">
<title>llm_refine&#45;&gt;hist_view</title>
<path fill="none" stroke="#2c3e50" stroke-width="1.5" stroke-dasharray="1,5" d="M529.14,-547.98C563.54,-520.64 618.51,-476.96 653.09,-449.48"/>
<polygon fill="#2c3e50" stroke="#2c3e50" stroke-width="1.5" points="654.84,-452.56 660.49,-443.6 650.48,-447.08 654.84,-452.56"/>
<text xml:space="preserve" text-anchor="middle" x="618.66" y="-500.5" font-family="Comic Sans MS" font-size="9.00" fill="#2c3e50">metrics</text>
</g>
<!-- refined&#45;&gt;mgr -->
<g id="edge11" class="edge">
<title>refined&#45;&gt;mgr</title>
<path fill="none" stroke="#4caf50" stroke-width="1.5" d="M505.48,-404.45C514.56,-383.33 529.8,-347.84 540.54,-322.84"/>
<polygon fill="#4caf50" stroke="#4caf50" stroke-width="1.5" points="543.63,-324.51 544.36,-313.94 537.2,-321.75 543.63,-324.51"/>
<text xml:space="preserve" text-anchor="middle" x="541.24" y="-356.65" font-family="Comic Sans MS" font-size="9.00" fill="#2c3e50">update</text>
</g>
<!-- settings -->
<g id="node10" class="node">
<title>settings</title>
<path fill="#ffe0b2" stroke="#2c3e50" stroke-width="2" d="M383.04,-1793.8C383.04,-1793.8 248.64,-1793.8 248.64,-1793.8 242.64,-1793.8 236.64,-1787.8 236.64,-1781.8 236.64,-1781.8 236.64,-1755.7 236.64,-1755.7 236.64,-1749.7 242.64,-1743.7 248.64,-1743.7 248.64,-1743.7 383.04,-1743.7 383.04,-1743.7 389.04,-1743.7 395.04,-1749.7 395.04,-1755.7 395.04,-1755.7 395.04,-1781.8 395.04,-1781.8 395.04,-1787.8 389.04,-1793.8 383.04,-1793.8"/>
<text xml:space="preserve" text-anchor="middle" x="315.84" y="-1773.5" font-family="Comic Sans MS" font-size="10.00">SettingsView</text>
<text xml:space="preserve" text-anchor="middle" x="315.84" y="-1759.25" font-family="Comic Sans MS" font-size="10.00">Download Request</text>
</g>
<!-- downloader -->
<g id="node11" class="node">
<title>downloader</title>
<path fill="#ffcc80" stroke="#2c3e50" stroke-width="2" d="M383.04,-1664.2C383.04,-1664.2 248.64,-1664.2 248.64,-1664.2 242.64,-1664.2 236.64,-1658.2 236.64,-1652.2 236.64,-1652.2 236.64,-1626.1 236.64,-1626.1 236.64,-1620.1 242.64,-1614.1 248.64,-1614.1 248.64,-1614.1 383.04,-1614.1 383.04,-1614.1 389.04,-1614.1 395.04,-1620.1 395.04,-1626.1 395.04,-1626.1 395.04,-1652.2 395.04,-1652.2 395.04,-1658.2 389.04,-1664.2 383.04,-1664.2"/>
<text xml:space="preserve" text-anchor="middle" x="315.84" y="-1643.9" font-family="Comic Sans MS" font-size="10.00">Model Download</text>
<text xml:space="preserve" text-anchor="middle" x="315.84" y="-1629.65" font-family="Comic Sans MS" font-size="10.00">Manager</text>
</g>
<!-- settings&#45;&gt;downloader -->
<g id="edge14" class="edge">
<title>settings&#45;&gt;downloader</title>
<path fill="none" stroke="#ff9800" stroke-width="2" d="M315.84,-1742.84C315.84,-1724.4 315.84,-1698.95 315.84,-1677.99"/>
<polygon fill="#ff9800" stroke="#ff9800" stroke-width="2" points="319.34,-1678.02 315.84,-1668.02 312.34,-1678.02 319.34,-1678.02"/>
<text xml:space="preserve" text-anchor="middle" x="334.21" y="-1702.15" font-family="Comic Sans MS" font-size="9.00" fill="#2c3e50">download</text>
</g>
<!-- r2 -->
<g id="node12" class="node">
<title>r2</title>
<path fill="#ffb74d" stroke="#2c3e50" stroke-width="2" d="M383.04,-1534.6C383.04,-1534.6 248.64,-1534.6 248.64,-1534.6 242.64,-1534.6 236.64,-1528.6 236.64,-1522.6 236.64,-1522.6 236.64,-1496.5 236.64,-1496.5 236.64,-1490.5 242.64,-1484.5 248.64,-1484.5 248.64,-1484.5 383.04,-1484.5 383.04,-1484.5 389.04,-1484.5 395.04,-1490.5 395.04,-1496.5 395.04,-1496.5 395.04,-1522.6 395.04,-1522.6 395.04,-1528.6 389.04,-1534.6 383.04,-1534.6"/>
<text xml:space="preserve" text-anchor="middle" x="315.84" y="-1514.3" font-family="Comic Sans MS" font-size="10.00">Cloudflare R2</text>
<text xml:space="preserve" text-anchor="middle" x="315.84" y="-1500.05" font-family="Comic Sans MS" font-size="10.00">HTTPS Download</text>
</g>
<!-- downloader&#45;&gt;r2 -->
<g id="edge15" class="edge">
<title>downloader&#45;&gt;r2</title>
<path fill="none" stroke="#ff9800" stroke-width="1.5" d="M315.84,-1613.24C315.84,-1594.54 315.84,-1568.62 315.84,-1547.5"/>
<polygon fill="#ff9800" stroke="#ff9800" stroke-width="1.5" points="319.34,-1547.66 315.84,-1537.66 312.34,-1547.66 319.34,-1547.66"/>
<text xml:space="preserve" text-anchor="middle" x="337.59" y="-1572.55" font-family="Comic Sans MS" font-size="9.00" fill="#2c3e50">HTTP GET</text>
</g>
<!-- local -->
<g id="node13" class="node">
<title>local</title>
<path fill="#ffa726" stroke="#2c3e50" stroke-width="2" d="M383.04,-1405C383.04,-1405 248.64,-1405 248.64,-1405 242.64,-1405 236.64,-1399 236.64,-1393 236.64,-1393 236.64,-1366.9 236.64,-1366.9 236.64,-1360.9 242.64,-1354.9 248.64,-1354.9 248.64,-1354.9 383.04,-1354.9 383.04,-1354.9 389.04,-1354.9 395.04,-1360.9 395.04,-1366.9 395.04,-1366.9 395.04,-1393 395.04,-1393 395.04,-1399 389.04,-1405 383.04,-1405"/>
<text xml:space="preserve" text-anchor="middle" x="315.84" y="-1384.7" font-family="Comic Sans MS" font-size="10.00">Documents/</text>
<text xml:space="preserve" text-anchor="middle" x="315.84" y="-1370.45" font-family="Comic Sans MS" font-size="10.00">models/*.task</text>
</g>
<!-- r2&#45;&gt;local -->
<g id="edge16" class="edge">
<title>r2&#45;&gt;local</title>
<path fill="none" stroke="#ff9800" stroke-width="1.5" d="M315.84,-1483.64C315.84,-1464.94 315.84,-1439.02 315.84,-1417.9"/>
<polygon fill="#ff9800" stroke="#ff9800" stroke-width="1.5" points="319.34,-1418.06 315.84,-1408.06 312.34,-1418.06 319.34,-1418.06"/>
<text xml:space="preserve" text-anchor="middle" x="334.59" y="-1442.95" font-family="Comic Sans MS" font-size="9.00" fill="#2c3e50">.task file</text>
</g>
<!-- init -->
<g id="node14" class="node">
<title>init</title>
<path fill="#ff9800" stroke="#2c3e50" stroke-width="2" d="M390.24,-1275.4C390.24,-1275.4 241.44,-1275.4 241.44,-1275.4 235.44,-1275.4 229.44,-1269.4 229.44,-1263.4 229.44,-1263.4 229.44,-1237.3 229.44,-1237.3 229.44,-1231.3 235.44,-1225.3 241.44,-1225.3 241.44,-1225.3 390.24,-1225.3 390.24,-1225.3 396.24,-1225.3 402.24,-1231.3 402.24,-1237.3 402.24,-1237.3 402.24,-1263.4 402.24,-1263.4 402.24,-1269.4 396.24,-1275.4 390.24,-1275.4"/>
<text xml:space="preserve" text-anchor="middle" x="315.84" y="-1255.1" font-family="Comic Sans MS" font-size="10.00">OnDeviceLLMService</text>
<text xml:space="preserve" text-anchor="middle" x="315.84" y="-1240.85" font-family="Comic Sans MS" font-size="10.00">.initializeModel()</text>
</g>
<!-- local&#45;&gt;init -->
<g id="edge17" class="edge">
<title>local&#45;&gt;init</title>
<path fill="none" stroke="#ff9800" stroke-width="2" d="M315.84,-1354.04C315.84,-1335.6 315.84,-1310.15 315.84,-1289.19"/>
<polygon fill="#ff9800" stroke="#ff9800" stroke-width="2" points="319.34,-1289.22 315.84,-1279.22 312.34,-1289.22 319.34,-1289.22"/>
<text xml:space="preserve" text-anchor="middle" x="333.09" y="-1313.35" font-family="Comic Sans MS" font-size="9.00" fill="#2c3e50">initialize</text>
</g>
<!-- extract -->
<g id="node15" class="node">
<title>extract</title>
<path fill="#fb8c00" stroke="#2c3e50" stroke-width="2" d="M382.04,-1145.8C382.04,-1145.8 247.64,-1145.8 247.64,-1145.8 241.64,-1145.8 235.64,-1139.8 235.64,-1133.8 235.64,-1133.8 235.64,-1107.7 235.64,-1107.7 235.64,-1101.7 241.64,-1095.7 247.64,-1095.7 247.64,-1095.7 382.04,-1095.7 382.04,-1095.7 388.04,-1095.7 394.04,-1101.7 394.04,-1107.7 394.04,-1107.7 394.04,-1133.8 394.04,-1133.8 394.04,-1139.8 388.04,-1145.8 382.04,-1145.8"/>
<text xml:space="preserve" text-anchor="middle" x="314.84" y="-1125.5" font-family="Comic Sans MS" font-size="10.00">ZIPFoundation</text>
<text xml:space="preserve" text-anchor="middle" x="314.84" y="-1111.25" font-family="Comic Sans MS" font-size="10.00">Extract Vision</text>
</g>
<!-- init&#45;&gt;extract -->
<g id="edge18" class="edge">
<title>init&#45;&gt;extract</title>
<path fill="none" stroke="#ff9800" stroke-width="1.5" d="M315.64,-1224.44C315.5,-1205.74 315.29,-1179.82 315.13,-1158.7"/>
<polygon fill="#ff9800" stroke="#ff9800" stroke-width="1.5" points="318.63,-1158.84 315.05,-1148.86 311.63,-1158.89 318.63,-1158.84"/>
<text xml:space="preserve" text-anchor="middle" x="331.87" y="-1183.75" font-family="Comic Sans MS" font-size="9.00" fill="#2c3e50">extract</text>
</g>
<!-- cache -->
<g id="node16" class="node">
<title>cache</title>
<path fill="#f57c00" stroke="#2c3e50" stroke-width="2" d="M381.04,-1008.7C381.04,-1008.7 246.64,-1008.7 246.64,-1008.7 240.64,-1008.7 234.64,-1002.7 234.64,-996.7 234.64,-996.7 234.64,-970.6 234.64,-970.6 234.64,-964.6 240.64,-958.6 246.64,-958.6 246.64,-958.6 381.04,-958.6 381.04,-958.6 387.04,-958.6 393.04,-964.6 393.04,-970.6 393.04,-970.6 393.04,-996.7 393.04,-996.7 393.04,-1002.7 387.04,-1008.7 381.04,-1008.7"/>
<text xml:space="preserve" text-anchor="middle" x="313.84" y="-988.4" font-family="Comic Sans MS" font-size="10.00">AppSupport/</text>
<text xml:space="preserve" text-anchor="middle" x="313.84" y="-974.15" font-family="Comic Sans MS" font-size="10.00">Vision Models</text>
</g>
<!-- extract&#45;&gt;cache -->
<g id="edge19" class="edge">
<title>extract&#45;&gt;cache</title>
<path fill="none" stroke="#ff9800" stroke-width="1.5" d="M314.65,-1094.97C314.5,-1074.4 314.28,-1044.85 314.11,-1021.51"/>
<polygon fill="#ff9800" stroke="#ff9800" stroke-width="1.5" points="317.61,-1021.52 314.04,-1011.54 310.61,-1021.57 317.61,-1021.52"/>
<text xml:space="preserve" text-anchor="middle" x="339.15" y="-1054.15" font-family="Comic Sans MS" font-size="9.00" fill="#2c3e50">TF_LITE_*</text>
</g>
<!-- cache&#45;&gt;llm_gen -->
<g id="edge20" class="edge">
<title>cache&#45;&gt;llm_gen</title>
<path fill="none" stroke="#527fff" stroke-width="1.5" stroke-dasharray="5,2" d="M279.6,-957.75C247.29,-934.25 198.69,-898.9 163.58,-873.36"/>
<polygon fill="#527fff" stroke="#527fff" stroke-width="1.5" points="166.04,-870.83 155.89,-867.77 161.92,-876.49 166.04,-870.83"/>
<text xml:space="preserve" text-anchor="middle" x="254.46" y="-917.05" font-family="Comic Sans MS" font-size="9.00" fill="#2c3e50">load for</text>
<text xml:space="preserve" text-anchor="middle" x="254.46" y="-903.55" font-family="Comic Sans MS" font-size="9.00" fill="#2c3e50">inference</text>
</g>
<!-- gen_model -->
<g id="node18" class="node">
<title>gen_model</title>
<path fill="#a5d6a7" stroke="#2c3e50" stroke-width="2" d="M700.24,-66.1C700.24,-66.1 551.44,-66.1 551.44,-66.1 545.44,-66.1 539.44,-60.1 539.44,-54.1 539.44,-54.1 539.44,-28 539.44,-28 539.44,-22 545.44,-16 551.44,-16 551.44,-16 700.24,-16 700.24,-16 706.24,-16 712.24,-22 712.24,-28 712.24,-28 712.24,-54.1 712.24,-54.1 712.24,-60.1 706.24,-66.1 700.24,-66.1"/>
<text xml:space="preserve" text-anchor="middle" x="625.84" y="-45.8" font-family="Comic Sans MS" font-size="10.00">Generation Model</text>
<text xml:space="preserve" text-anchor="middle" x="625.84" y="-31.55" font-family="Comic Sans MS" font-size="10.00">images, latex, pdf</text>
</g>
<!-- mgr&#45;&gt;gen_model -->
<g id="edge7" class="edge">
<title>mgr&#45;&gt;gen_model</title>
<path fill="none" stroke="#4caf50" stroke-width="1.5" d="M535.36,-274.28C510.33,-246.34 469.6,-190.88 491.84,-145.6 506.95,-114.83 536.09,-90.6 563.35,-73.35"/>
<polygon fill="#4caf50" stroke="#4caf50" stroke-width="1.5" points="565.01,-76.44 571.74,-68.26 561.37,-70.46 565.01,-76.44"/>
<text xml:space="preserve" text-anchor="middle" x="506.84" y="-168.85" font-family="Comic Sans MS" font-size="9.00" fill="#2c3e50">persist</text>
</g>
<!-- mgr&#45;&gt;gen_model -->
<g id="edge23" class="edge">
<title>mgr&#45;&gt;gen_model</title>
<path fill="none" stroke="#e91e63" stroke-width="1.5" stroke-dasharray="1,5" d="M558.09,-274.21C570,-233.38 599.28,-133.05 615.17,-78.61"/>
<polygon fill="#e91e63" stroke="#e91e63" stroke-width="1.5" points="618.45,-79.85 617.89,-69.27 611.73,-77.89 618.45,-79.85"/>
<text xml:space="preserve" text-anchor="middle" x="607.02" y="-168.85" font-family="Comic Sans MS" font-size="9.00" fill="#2c3e50">query</text>
</g>
<!-- ref_model -->
<g id="node19" class="node">
<title>ref_model</title>
<path fill="#a5d6a7" stroke="#2c3e50" stroke-width="2" d="M802.24,-195.7C802.24,-195.7 653.44,-195.7 653.44,-195.7 647.44,-195.7 641.44,-189.7 641.44,-183.7 641.44,-183.7 641.44,-157.6 641.44,-157.6 641.44,-151.6 647.44,-145.6 653.44,-145.6 653.44,-145.6 802.24,-145.6 802.24,-145.6 808.24,-145.6 814.24,-151.6 814.24,-157.6 814.24,-157.6 814.24,-183.7 814.24,-183.7 814.24,-189.7 808.24,-195.7 802.24,-195.7"/>
<text xml:space="preserve" text-anchor="middle" x="727.84" y="-175.4" font-family="Comic Sans MS" font-size="10.00">RefinementEntry</text>
<text xml:space="preserve" text-anchor="middle" x="727.84" y="-161.15" font-family="Comic Sans MS" font-size="10.00">feedback, history</text>
</g>
<!-- mgr&#45;&gt;ref_model -->
<g id="edge12" class="edge">
<title>mgr&#45;&gt;ref_model</title>
<path fill="none" stroke="#4caf50" stroke-width="1.5" d="M578.66,-274.41C605.71,-255.78 648.78,-226.11 681.7,-203.44"/>
<polygon fill="#4caf50" stroke="#4caf50" stroke-width="1.5" points="683.44,-206.48 689.69,-197.93 679.47,-200.72 683.44,-206.48"/>
<text xml:space="preserve" text-anchor="middle" x="654.59" y="-233.65" font-family="Comic Sans MS" font-size="9.00" fill="#2c3e50">append</text>
</g>
<!-- results -->
<g id="node22" class="node">
<title>results</title>
<path fill="#f48fb1" stroke="#2c3e50" stroke-width="2" d="M1133.04,-448.3C1133.04,-448.3 998.64,-448.3 998.64,-448.3 992.64,-448.3 986.64,-442.3 986.64,-436.3 986.64,-436.3 986.64,-410.2 986.64,-410.2 986.64,-404.2 992.64,-398.2 998.64,-398.2 998.64,-398.2 1133.04,-398.2 1133.04,-398.2 1139.04,-398.2 1145.04,-404.2 1145.04,-410.2 1145.04,-410.2 1145.04,-436.3 1145.04,-436.3 1145.04,-442.3 1139.04,-448.3 1133.04,-448.3"/>
<text xml:space="preserve" text-anchor="middle" x="1065.84" y="-428" font-family="Comic Sans MS" font-size="10.00">Sorted Results</text>
<text xml:space="preserve" text-anchor="middle" x="1065.84" y="-413.75" font-family="Comic Sans MS" font-size="10.00">by timestamp</text>
</g>
<!-- gen_model&#45;&gt;results -->
<g id="edge24" class="edge">
<title>gen_model&#45;&gt;results</title>
<path fill="none" stroke="#e91e63" stroke-width="1.5" d="M693.83,-67.01C737.12,-84.88 792.9,-111.75 835.84,-145.6 926.84,-217.35 1006.75,-330.42 1043.84,-387.22"/>
<polygon fill="#e91e63" stroke="#e91e63" stroke-width="1.5" points="1040.87,-389.07 1049.24,-395.57 1046.75,-385.27 1040.87,-389.07"/>
<text xml:space="preserve" text-anchor="middle" x="945.52" y="-233.65" font-family="Comic Sans MS" font-size="9.00" fill="#2c3e50">fetch</text>
</g>
<!-- ref_model&#45;&gt;gen_model -->
<g id="edge13" class="edge">
<title>ref_model&#45;&gt;gen_model</title>
<path fill="none" stroke="#4caf50" stroke-width="1.5" stroke-dasharray="5,2" d="M707.93,-144.74C692.34,-125.25 670.49,-97.91 653.25,-76.35"/>
<polygon fill="#4caf50" stroke="#4caf50" stroke-width="1.5" points="656.09,-74.29 647.11,-68.67 650.62,-78.66 656.09,-74.29"/>
<text xml:space="preserve" text-anchor="middle" x="691.9" y="-104.05" font-family="Comic Sans MS" font-size="9.00" fill="#2c3e50">linked</text>
</g>
<!-- hist_view&#45;&gt;mgr -->
<g id="edge21" class="edge">
<title>hist_view&#45;&gt;mgr</title>
<path fill="none" stroke="#e91e63" stroke-width="1.5" d="M666.48,-404.45C643.92,-382.56 605.46,-345.25 579.61,-320.17"/>
<polygon fill="#e91e63" stroke="#e91e63" stroke-width="1.5" points="582.28,-317.89 572.67,-313.43 577.41,-322.91 582.28,-317.89"/>
<text xml:space="preserve" text-anchor="middle" x="631.05" y="-356.65" font-family="Comic Sans MS" font-size="9.00" fill="#2c3e50">load</text>
</g>
<!-- search -->
<g id="node21" class="node">
<title>search</title>
<path fill="#f8bbd0" stroke="#2c3e50" stroke-width="2" d="M931.84,-448.3C931.84,-448.3 811.84,-448.3 811.84,-448.3 805.84,-448.3 799.84,-442.3 799.84,-436.3 799.84,-436.3 799.84,-410.2 799.84,-410.2 799.84,-404.2 805.84,-398.2 811.84,-398.2 811.84,-398.2 931.84,-398.2 931.84,-398.2 937.84,-398.2 943.84,-404.2 943.84,-410.2 943.84,-410.2 943.84,-436.3 943.84,-436.3 943.84,-442.3 937.84,-448.3 931.84,-448.3"/>
<text xml:space="preserve" text-anchor="middle" x="871.84" y="-428" font-family="Comic Sans MS" font-size="10.00">Search Query</text>
<text xml:space="preserve" text-anchor="middle" x="871.84" y="-413.75" font-family="Comic Sans MS" font-size="10.00">(optional)</text>
</g>
<!-- search&#45;&gt;mgr -->
<g id="edge22" class="edge">
<title>search&#45;&gt;mgr</title>
<path fill="none" stroke="#e91e63" stroke-width="1.5" stroke-dasharray="5,2" d="M809.57,-397.26C751.22,-373.83 664.79,-339.14 608.63,-316.6"/>
<polygon fill="#e91e63" stroke="#e91e63" stroke-width="1.5" points="610.17,-313.44 599.58,-312.96 607.56,-319.94 610.17,-313.44"/>
<text xml:space="preserve" text-anchor="middle" x="733.53" y="-356.65" font-family="Comic Sans MS" font-size="9.00" fill="#2c3e50">filter</text>
</g>
</g>
</svg>
