<?xml version="1.0" encoding="UTF-8" standalone="no"?>
<!DOCTYPE svg PUBLIC "-//W3C//DTD SVG 1.1//EN"
 "http://www.w3.org/Graphics/SVG/1.1/DTD/svg11.dtd">
<!-- Generated by graphviz version 14.0.1 (20251006.0113)
 -->
<!-- Title: Performance_Monitoring Pages: 1 -->
<svg width="7656pt" height="2806pt"
 viewBox="0.00 0.00 7656.00 2806.00" xmlns="http://www.w3.org/2000/svg" xmlns:xlink="http://www.w3.org/1999/xlink">
<g id="graph0" class="graph" transform="scale(4.16667 4.16667) rotate(0) translate(4 669.43)">
<title>Performance_Monitoring</title>
<polygon fill="white" stroke="none" points="-4,4 -4,-669.43 1833.4,-669.43 1833.4,4 -4,4"/>
<g id="clust1" class="cluster">
<title>cluster_collect</title>
<path fill="white" stroke="#4caf50" stroke-dasharray="5,2" d="M20,-332.43C20,-332.43 661.6,-332.43 661.6,-332.43 667.6,-332.43 673.6,-338.43 673.6,-344.43 673.6,-344.43 673.6,-611.43 673.6,-611.43 673.6,-617.43 667.6,-623.43 661.6,-623.43 661.6,-623.43 20,-623.43 20,-623.43 14,-623.43 8,-617.43 8,-611.43 8,-611.43 8,-344.43 8,-344.43 8,-338.43 14,-332.43 20,-332.43"/>
<text xml:space="preserve" text-anchor="middle" x="340.8" y="-608.98" font-family="Comic Sans MS" font-size="11.00" fill="#2c3e50">Metrics Collection</text>
</g>
<g id="clust2" class="cluster">
<title>cluster_service</title>
<path fill="white" stroke="#527fff" stroke-dasharray="5,2" d="M784.1,-376.43C784.1,-376.43 1225.68,-376.43 1225.68,-376.43 1231.68,-376.43 1237.68,-382.43 1237.68,-388.43 1237.68,-388.43 1237.68,-597.43 1237.68,-597.43 1237.68,-603.43 1231.68,-609.43 1225.68,-609.43 1225.68,-609.43 784.1,-609.43 784.1,-609.43 778.1,-609.43 772.1,-603.43 772.1,-597.43 772.1,-597.43 772.1,-388.43 772.1,-388.43 772.1,-382.43 778.1,-376.43 784.1,-376.43"/>
<text xml:space="preserve" text-anchor="middle" x="1004.89" y="-594.98" font-family="Comic Sans MS" font-size="11.00" fill="#2c3e50">OnDeviceLLMService (@Published)</text>
</g>
<g id="clust3" class="cluster">
<title>cluster_agg</title>
<path fill="white" stroke="#9c27b0" stroke-dasharray="5,2" d="M1068.08,-112.43C1068.08,-112.43 1544.9,-112.43 1544.9,-112.43 1550.9,-112.43 1556.9,-118.43 1556.9,-124.43 1556.9,-124.43 1556.9,-305.43 1556.9,-305.43 1556.9,-311.43 1550.9,-317.43 1544.9,-317.43 1544.9,-317.43 1068.08,-317.43 1068.08,-317.43 1062.08,-317.43 1056.08,-311.43 1056.08,-305.43 1056.08,-305.43 1056.08,-124.43 1056.08,-124.43 1056.08,-118.43 1062.08,-112.43 1068.08,-112.43"/>
<text xml:space="preserve" text-anchor="middle" x="1306.49" y="-302.98" font-family="Comic Sans MS" font-size="11.00" fill="#2c3e50">Data Aggregation</text>
</g>
<g id="clust4" class="cluster">
<title>cluster_ui</title>
<path fill="white" stroke="#ff9800" stroke-dasharray="5,2" d="M1387.3,-366.43C1387.3,-366.43 1809.4,-366.43 1809.4,-366.43 1815.4,-366.43 1821.4,-372.43 1821.4,-378.43 1821.4,-378.43 1821.4,-645.43 1821.4,-645.43 1821.4,-651.43 1815.4,-657.43 1809.4,-657.43 1809.4,-657.43 1387.3,-657.43 1387.3,-657.43 1381.3,-657.43 1375.3,-651.43 1375.3,-645.43 1375.3,-645.43 1375.3,-378.43 1375.3,-378.43 1375.3,-372.43 1381.3,-366.43 1387.3,-366.43"/>
<text xml:space="preserve" text-anchor="middle" x="1598.35" y="-642.98" font-family="Comic Sans MS" font-size="11.00" fill="#2c3e50">UI Display Layer</text>
</g>
<!-- timer -->
<g id="node1" class="node">
<title>timer</title>
<path fill="#c8e6c9" stroke="#2c3e50" stroke-width="2" d="M140.8,-590.48C140.8,-590.48 35.2,-590.48 35.2,-590.48 29.2,-590.48 23.2,-584.48 23.2,-578.48 23.2,-578.48 23.2,-552.38 23.2,-552.38 23.2,-546.38 29.2,-540.38 35.2,-540.38 35.2,-540.38 140.8,-540.38 140.8,-540.38 146.8,-540.38 152.8,-546.38 152.8,-552.38 152.8,-552.38 152.8,-578.48 152.8,-578.48 152.8,-584.48 146.8,-590.48 140.8,-590.48"/>
<text xml:space="preserve" text-anchor="middle" x="88" y="-570.18" font-family="Comic Sans MS" font-size="10.00">Timer</text>
<text xml:space="preserve" text-anchor="middle" x="88" y="-555.93" font-family="Comic Sans MS" font-size="10.00">1s interval</text>
</g>
<!-- process -->
<g id="node2" class="node">
<title>process</title>
<path fill="#a5d6a7" stroke="#2c3e50" stroke-width="2" d="M398.85,-588.48C398.85,-588.48 293.25,-588.48 293.25,-588.48 287.25,-588.48 281.25,-582.48 281.25,-576.48 281.25,-576.48 281.25,-550.38 281.25,-550.38 281.25,-544.38 287.25,-538.38 293.25,-538.38 293.25,-538.38 398.85,-538.38 398.85,-538.38 404.85,-538.38 410.85,-544.38 410.85,-550.38 410.85,-550.38 410.85,-576.48 410.85,-576.48 410.85,-582.48 404.85,-588.48 398.85,-588.48"/>
<text xml:space="preserve" text-anchor="middle" x="346.05" y="-568.18" font-family="Comic Sans MS" font-size="10.00">ProcessMetrics</text>
<text xml:space="preserve" text-anchor="middle" x="346.05" y="-553.93" font-family="Comic Sans MS" font-size="10.00">Utility</text>
</g>
<!-- timer&#45;&gt;process -->
<g id="edge1" class="edge">
<title>timer&#45;&gt;process</title>
<path fill="none" stroke="#4caf50" stroke-width="2" d="M153.61,-564.92C188.33,-564.65 231.38,-564.31 267.86,-564.03"/>
<polygon fill="#4caf50" stroke="#4caf50" stroke-width="2" points="267.46,-567.53 277.43,-563.95 267.4,-560.53 267.46,-567.53"/>
<text xml:space="preserve" text-anchor="middle" x="220.62" y="-582.94" font-family="Comic Sans MS" font-size="9.00" fill="#2c3e50">trigger</text>
<text xml:space="preserve" text-anchor="middle" x="220.62" y="-569.44" font-family="Comic Sans MS" font-size="9.00" fill="#2c3e50">every 1s</text>
</g>
<!-- memory_fn -->
<g id="node3" class="node">
<title>memory_fn</title>
<path fill="#81c784" stroke="#2c3e50" stroke-width="2" d="M653.6,-590.48C653.6,-590.48 533.6,-590.48 533.6,-590.48 527.6,-590.48 521.6,-584.48 521.6,-578.48 521.6,-578.48 521.6,-552.38 521.6,-552.38 521.6,-546.38 527.6,-540.38 533.6,-540.38 533.6,-540.38 653.6,-540.38 653.6,-540.38 659.6,-540.38 665.6,-546.38 665.6,-552.38 665.6,-552.38 665.6,-578.48 665.6,-578.48 665.6,-584.48 659.6,-590.48 653.6,-590.48"/>
<text xml:space="preserve" text-anchor="middle" x="593.6" y="-570.18" font-family="Comic Sans MS" font-size="10.00">currentResident</text>
<text xml:space="preserve" text-anchor="middle" x="593.6" y="-555.93" font-family="Comic Sans MS" font-size="10.00">MemoryMB()</text>
</g>
<!-- process&#45;&gt;memory_fn -->
<g id="edge2" class="edge">
<title>process&#45;&gt;memory_fn</title>
<path fill="none" stroke="#4caf50" stroke-width="1.5" d="M411.57,-563.95C441.3,-564.19 476.97,-564.48 508.76,-564.74"/>
<polygon fill="#4caf50" stroke="#4caf50" stroke-width="1.5" points="508.43,-568.24 518.46,-564.82 508.49,-561.24 508.43,-568.24"/>
</g>
<!-- cpu_fn -->
<g id="node4" class="node">
<title>cpu_fn</title>
<path fill="#81c784" stroke="#2c3e50" stroke-width="2" d="M653.6,-490.48C653.6,-490.48 533.6,-490.48 533.6,-490.48 527.6,-490.48 521.6,-484.48 521.6,-478.48 521.6,-478.48 521.6,-452.38 521.6,-452.38 521.6,-446.38 527.6,-440.38 533.6,-440.38 533.6,-440.38 653.6,-440.38 653.6,-440.38 659.6,-440.38 665.6,-446.38 665.6,-452.38 665.6,-452.38 665.6,-478.48 665.6,-478.48 665.6,-484.48 659.6,-490.48 653.6,-490.48"/>
<text xml:space="preserve" text-anchor="middle" x="593.6" y="-470.18" font-family="Comic Sans MS" font-size="10.00">currentCPU</text>
<text xml:space="preserve" text-anchor="middle" x="593.6" y="-455.93" font-family="Comic Sans MS" font-size="10.00">Usage()</text>
</g>
<!-- process&#45;&gt;cpu_fn -->
<g id="edge3" class="edge">
<title>process&#45;&gt;cpu_fn</title>
<path fill="none" stroke="#4caf50" stroke-width="1.5" d="M411.57,-537.68C443.74,-524.84 482.85,-509.23 516.49,-495.8"/>
<polygon fill="#4caf50" stroke="#4caf50" stroke-width="1.5" points="517.56,-499.14 525.55,-492.18 514.97,-492.64 517.56,-499.14"/>
</g>
<!-- service -->
<g id="node7" class="node">
<title>service</title>
<path fill="#bbd7ff" stroke="#2c3e50" stroke-width="2" d="M912.1,-446.48C912.1,-446.48 792.1,-446.48 792.1,-446.48 786.1,-446.48 780.1,-440.48 780.1,-434.48 780.1,-434.48 780.1,-408.38 780.1,-408.38 780.1,-402.38 786.1,-396.38 792.1,-396.38 792.1,-396.38 912.1,-396.38 912.1,-396.38 918.1,-396.38 924.1,-402.38 924.1,-408.38 924.1,-408.38 924.1,-434.48 924.1,-434.48 924.1,-440.48 918.1,-446.48 912.1,-446.48"/>
<text xml:space="preserve" text-anchor="middle" x="852.1" y="-426.18" font-family="Comic Sans MS" font-size="10.00">LLM Service</text>
<text xml:space="preserve" text-anchor="middle" x="852.1" y="-411.93" font-family="Comic Sans MS" font-size="10.00">Singleton</text>
</g>
<!-- memory_fn&#45;&gt;service -->
<g id="edge4" class="edge">
<title>memory_fn&#45;&gt;service</title>
<path fill="none" stroke="#527fff" stroke-width="2" d="M640.75,-539.52C683.57,-515.48 747.44,-479.62 793.57,-453.73"/>
<polygon fill="#527fff" stroke="#527fff" stroke-width="2" points="795.24,-456.8 802.25,-448.85 791.81,-450.7 795.24,-456.8"/>
<text xml:space="preserve" text-anchor="middle" x="722.85" y="-502.69" font-family="Comic Sans MS" font-size="9.00" fill="#2c3e50">update</text>
</g>
<!-- cpu_fn&#45;&gt;service -->
<g id="edge5" class="edge">
<title>cpu_fn&#45;&gt;service</title>
<path fill="none" stroke="#527fff" stroke-width="2" d="M666.39,-453.11C697.53,-447.77 734.22,-441.48 766.66,-435.91"/>
<polygon fill="#527fff" stroke="#527fff" stroke-width="2" points="767.08,-439.39 776.34,-434.25 765.9,-432.49 767.08,-439.39"/>
<text xml:space="preserve" text-anchor="middle" x="722.85" y="-449.7" font-family="Comic Sans MS" font-size="9.00" fill="#2c3e50">update</text>
</g>
<!-- battery -->
<g id="node5" class="node">
<title>battery</title>
<path fill="#81c784" stroke="#2c3e50" stroke-width="2" d="M148,-490.48C148,-490.48 28,-490.48 28,-490.48 22,-490.48 16,-484.48 16,-478.48 16,-478.48 16,-452.38 16,-452.38 16,-446.38 22,-440.38 28,-440.38 28,-440.38 148,-440.38 148,-440.38 154,-440.38 160,-446.38 160,-452.38 160,-452.38 160,-478.48 160,-478.48 160,-484.48 154,-490.48 148,-490.48"/>
<text xml:space="preserve" text-anchor="middle" x="88" y="-470.18" font-family="Comic Sans MS" font-size="10.00">UIDevice</text>
<text xml:space="preserve" text-anchor="middle" x="88" y="-455.93" font-family="Comic Sans MS" font-size="10.00">batteryLevel</text>
</g>
<!-- battery&#45;&gt;service -->
<g id="edge6" class="edge">
<title>battery&#45;&gt;service</title>
<path fill="none" stroke="#527fff" stroke-width="1.5" d="M160.73,-454.57C246.37,-442.21 394.04,-422.77 521.6,-415.43 589.04,-411.54 606.05,-414.28 673.6,-415.43 704.22,-415.94 737.8,-416.96 767.43,-418.02"/>
<polygon fill="#527fff" stroke="#527fff" stroke-width="1.5" points="767.04,-421.5 777.16,-418.37 767.3,-414.51 767.04,-421.5"/>
<text xml:space="preserve" text-anchor="middle" x="466.22" y="-424.85" font-family="Comic Sans MS" font-size="9.00" fill="#2c3e50">notify</text>
</g>
<!-- thermal -->
<g id="node6" class="node">
<title>thermal</title>
<path fill="#81c784" stroke="#2c3e50" stroke-width="2" d="M148,-390.48C148,-390.48 28,-390.48 28,-390.48 22,-390.48 16,-384.48 16,-378.48 16,-378.48 16,-352.38 16,-352.38 16,-346.38 22,-340.38 28,-340.38 28,-340.38 148,-340.38 148,-340.38 154,-340.38 160,-346.38 160,-352.38 160,-352.38 160,-378.48 160,-378.48 160,-384.48 154,-390.48 148,-390.48"/>
<text xml:space="preserve" text-anchor="middle" x="88" y="-370.18" font-family="Comic Sans MS" font-size="10.00">ProcessInfo</text>
<text xml:space="preserve" text-anchor="middle" x="88" y="-355.93" font-family="Comic Sans MS" font-size="10.00">thermalState</text>
</g>
<!-- thermal&#45;&gt;service -->
<g id="edge7" class="edge">
<title>thermal&#45;&gt;service</title>
<path fill="none" stroke="#527fff" stroke-width="1.5" d="M160.62,-367.68C280.27,-371.9 528.29,-382.62 737.1,-404.43 746.9,-405.45 757.15,-406.71 767.3,-408.07"/>
<polygon fill="#527fff" stroke="#527fff" stroke-width="1.5" points="766.52,-411.5 776.91,-409.41 767.49,-404.56 766.52,-411.5"/>
<text xml:space="preserve" text-anchor="middle" x="466.22" y="-388.16" font-family="Comic Sans MS" font-size="9.00" fill="#2c3e50">notify</text>
</g>
<!-- realtime -->
<g id="node8" class="node">
<title>realtime</title>
<path fill="#90caf9" stroke="#2c3e50" stroke-width="2" d="M1217.68,-576.73C1217.68,-576.73 1083.28,-576.73 1083.28,-576.73 1077.28,-576.73 1071.28,-570.73 1071.28,-564.73 1071.28,-564.73 1071.28,-510.13 1071.28,-510.13 1071.28,-504.13 1077.28,-498.13 1083.28,-498.13 1083.28,-498.13 1217.68,-498.13 1217.68,-498.13 1223.68,-498.13 1229.68,-504.13 1229.68,-510.13 1229.68,-510.13 1229.68,-564.73 1229.68,-564.73 1229.68,-570.73 1223.68,-576.73 1217.68,-576.73"/>
<text xml:space="preserve" text-anchor="middle" x="1150.48" y="-556.43" font-family="Comic Sans MS" font-size="10.00">Real&#45;Time:</text>
<text xml:space="preserve" text-anchor="middle" x="1150.48" y="-542.18" font-family="Comic Sans MS" font-size="10.00">memory, CPU,</text>
<text xml:space="preserve" text-anchor="middle" x="1150.48" y="-527.93" font-family="Comic Sans MS" font-size="10.00">battery, thermal,</text>
<text xml:space="preserve" text-anchor="middle" x="1150.48" y="-513.68" font-family="Comic Sans MS" font-size="10.00">tokens/sec</text>
</g>
<!-- service&#45;&gt;realtime -->
<g id="edge8" class="edge">
<title>service&#45;&gt;realtime</title>
<path fill="none" stroke="#527fff" stroke-width="1.5" d="M919.61,-447.46C960.76,-463.56 1014.11,-484.45 1059.06,-502.04"/>
<polygon fill="#527fff" stroke="#527fff" stroke-width="1.5" points="1057.59,-505.22 1068.18,-505.61 1060.15,-498.7 1057.59,-505.22"/>
<text xml:space="preserve" text-anchor="middle" x="990.72" y="-487.85" font-family="Comic Sans MS" font-size="9.00" fill="#2c3e50">@Published</text>
</g>
<!-- history -->
<g id="node9" class="node">
<title>history</title>
<path fill="#64b5f6" stroke="#2c3e50" stroke-width="2" d="M1217.68,-448.6C1217.68,-448.6 1083.28,-448.6 1083.28,-448.6 1077.28,-448.6 1071.28,-442.6 1071.28,-436.6 1071.28,-436.6 1071.28,-396.25 1071.28,-396.25 1071.28,-390.25 1077.28,-384.25 1083.28,-384.25 1083.28,-384.25 1217.68,-384.25 1217.68,-384.25 1223.68,-384.25 1229.68,-390.25 1229.68,-396.25 1229.68,-396.25 1229.68,-436.6 1229.68,-436.6 1229.68,-442.6 1223.68,-448.6 1217.68,-448.6"/>
<text xml:space="preserve" text-anchor="middle" x="1150.48" y="-428.3" font-family="Comic Sans MS" font-size="10.00">Historical:</text>
<text xml:space="preserve" text-anchor="middle" x="1150.48" y="-414.05" font-family="Comic Sans MS" font-size="10.00">generationHistory[]</text>
<text xml:space="preserve" text-anchor="middle" x="1150.48" y="-399.8" font-family="Comic Sans MS" font-size="10.00">last 50</text>
</g>
<!-- service&#45;&gt;history -->
<g id="edge9" class="edge">
<title>service&#45;&gt;history</title>
<path fill="none" stroke="#527fff" stroke-width="1.5" d="M924.84,-420.22C964.92,-419.54 1015.28,-418.69 1058.15,-417.97"/>
<polygon fill="#527fff" stroke="#527fff" stroke-width="1.5" points="1058.11,-421.47 1068.05,-417.8 1057.99,-414.47 1058.11,-421.47"/>
<text xml:space="preserve" text-anchor="middle" x="990.72" y="-424.32" font-family="Comic Sans MS" font-size="9.00" fill="#2c3e50">@Published</text>
</g>
<!-- record -->
<g id="node10" class="node">
<title>record</title>
<path fill="#e1bee7" stroke="#2c3e50" stroke-width="2" d="M1217.68,-170.48C1217.68,-170.48 1083.28,-170.48 1083.28,-170.48 1077.28,-170.48 1071.28,-164.48 1071.28,-158.48 1071.28,-158.48 1071.28,-132.38 1071.28,-132.38 1071.28,-126.38 1077.28,-120.38 1083.28,-120.38 1083.28,-120.38 1217.68,-120.38 1217.68,-120.38 1223.68,-120.38 1229.68,-126.38 1229.68,-132.38 1229.68,-132.38 1229.68,-158.48 1229.68,-158.48 1229.68,-164.48 1223.68,-170.48 1217.68,-170.48"/>
<text xml:space="preserve" text-anchor="middle" x="1150.48" y="-150.18" font-family="Comic Sans MS" font-size="10.00">recordGeneration</text>
<text xml:space="preserve" text-anchor="middle" x="1150.48" y="-135.93" font-family="Comic Sans MS" font-size="10.00">Metrics()</text>
</g>
<!-- service&#45;&gt;record -->
<g id="edge10" class="edge">
<title>service&#45;&gt;record</title>
<path fill="none" stroke="#9c27b0" stroke-width="1.5" d="M871.42,-395.73C904.39,-350.81 977.66,-256.95 1056.08,-195.43 1064.38,-188.91 1073.66,-182.8 1083.05,-177.25"/>
<polygon fill="#9c27b0" stroke="#9c27b0" stroke-width="1.5" points="1084.72,-180.32 1091.69,-172.34 1081.27,-174.24 1084.72,-180.32"/>
<text xml:space="preserve" text-anchor="middle" x="990.72" y="-293.4" font-family="Comic Sans MS" font-size="9.00" fill="#2c3e50">after</text>
<text xml:space="preserve" text-anchor="middle" x="990.72" y="-279.9" font-family="Comic Sans MS" font-size="9.00" fill="#2c3e50">generation</text>
</g>
<!-- instruments -->
<g id="node17" class="node">
<title>instruments</title>
<ellipse fill="#f8bbd0" stroke="#2c3e50" stroke-width="2" cx="1150.48" cy="-35.43" rx="93.13" ry="35.43"/>
<text xml:space="preserve" text-anchor="middle" x="1150.48" y="-40.18" font-family="Comic Sans MS" font-size="10.00">Xcode Instruments</text>
<text xml:space="preserve" text-anchor="middle" x="1150.48" y="-25.93" font-family="Comic Sans MS" font-size="10.00">OSLog Signposts</text>
</g>
<!-- service&#45;&gt;instruments -->
<g id="edge19" class="edge">
<title>service&#45;&gt;instruments</title>
<path fill="none" stroke="#e91e63" stroke-width="1.5" stroke-dasharray="1,5" d="M861.61,-395.4C877.5,-349.22 914.88,-251.21 967.1,-180.93 999.92,-136.75 1049.27,-98.49 1088.36,-72.3"/>
<polygon fill="#e91e63" stroke="#e91e63" stroke-width="1.5" points="1090.25,-75.24 1096.68,-66.82 1086.4,-69.4 1090.25,-75.24"/>
<text xml:space="preserve" text-anchor="middle" x="990.72" y="-212.88" font-family="Comic Sans MS" font-size="9.00" fill="#2c3e50">signposts:</text>
<text xml:space="preserve" text-anchor="middle" x="990.72" y="-199.38" font-family="Comic Sans MS" font-size="9.00" fill="#2c3e50">ModelInit,</text>
<text xml:space="preserve" text-anchor="middle" x="990.72" y="-185.88" font-family="Comic Sans MS" font-size="9.00" fill="#2c3e50">FirstToken</text>
</g>
<!-- overlay -->
<g id="node15" class="node">
<title>overlay</title>
<path fill="#ffcc80" stroke="#2c3e50" stroke-width="2" d="M1522.5,-624.48C1522.5,-624.48 1402.5,-624.48 1402.5,-624.48 1396.5,-624.48 1390.5,-618.48 1390.5,-612.48 1390.5,-612.48 1390.5,-586.38 1390.5,-586.38 1390.5,-580.38 1396.5,-574.38 1402.5,-574.38 1402.5,-574.38 1522.5,-574.38 1522.5,-574.38 1528.5,-574.38 1534.5,-580.38 1534.5,-586.38 1534.5,-586.38 1534.5,-612.48 1534.5,-612.48 1534.5,-618.48 1528.5,-624.48 1522.5,-624.48"/>
<text xml:space="preserve" text-anchor="middle" x="1462.5" y="-604.18" font-family="Comic Sans MS" font-size="10.00">Generation</text>
<text xml:space="preserve" text-anchor="middle" x="1462.5" y="-589.93" font-family="Comic Sans MS" font-size="10.00">Overlay</text>
</g>
<!-- realtime&#45;&gt;overlay -->
<g id="edge14" class="edge">
<title>realtime&#45;&gt;overlay</title>
<path fill="none" stroke="#ff9800" stroke-width="2" d="M1230.51,-553.23C1275.28,-562.18 1331.28,-573.38 1376.93,-582.51"/>
<polygon fill="#ff9800" stroke="#ff9800" stroke-width="2" points="1376.05,-585.91 1386.54,-584.44 1377.42,-579.04 1376.05,-585.91"/>
<text xml:space="preserve" text-anchor="middle" x="1309.85" y="-590.59" font-family="Comic Sans MS" font-size="9.00" fill="#2c3e50">live</text>
<text xml:space="preserve" text-anchor="middle" x="1309.85" y="-577.09" font-family="Comic Sans MS" font-size="9.00" fill="#2c3e50">data</text>
</g>
<!-- cards -->
<g id="node16" class="node">
<title>cards</title>
<path fill="#ffcc80" stroke="#2c3e50" stroke-width="2" d="M1522.5,-524.48C1522.5,-524.48 1402.5,-524.48 1402.5,-524.48 1396.5,-524.48 1390.5,-518.48 1390.5,-512.48 1390.5,-512.48 1390.5,-486.38 1390.5,-486.38 1390.5,-480.38 1396.5,-474.38 1402.5,-474.38 1402.5,-474.38 1522.5,-474.38 1522.5,-474.38 1528.5,-474.38 1534.5,-480.38 1534.5,-486.38 1534.5,-486.38 1534.5,-512.48 1534.5,-512.48 1534.5,-518.48 1528.5,-524.48 1522.5,-524.48"/>
<text xml:space="preserve" text-anchor="middle" x="1462.5" y="-504.18" font-family="Comic Sans MS" font-size="10.00">Metric Cards</text>
<text xml:space="preserve" text-anchor="middle" x="1462.5" y="-489.93" font-family="Comic Sans MS" font-size="10.00">+ Sparklines</text>
</g>
<!-- realtime&#45;&gt;cards -->
<g id="edge15" class="edge">
<title>realtime&#45;&gt;cards</title>
<path fill="none" stroke="#ff9800" stroke-width="2" d="M1230.65,-515.91C1248.9,-511.72 1268.32,-507.88 1286.6,-505.43 1315.85,-501.5 1348.08,-499.69 1376.82,-498.96"/>
<polygon fill="#ff9800" stroke="#ff9800" stroke-width="2" points="1376.8,-502.46 1386.73,-498.75 1376.66,-495.46 1376.8,-502.46"/>
<text xml:space="preserve" text-anchor="middle" x="1309.85" y="-523.88" font-family="Comic Sans MS" font-size="9.00" fill="#2c3e50">live</text>
<text xml:space="preserve" text-anchor="middle" x="1309.85" y="-510.38" font-family="Comic Sans MS" font-size="9.00" fill="#2c3e50">data</text>
</g>
<!-- stats -->
<g id="node12" class="node">
<title>stats</title>
<path fill="#ba68c8" stroke="#2c3e50" stroke-width="2" d="M1224.88,-284.6C1224.88,-284.6 1076.08,-284.6 1076.08,-284.6 1070.08,-284.6 1064.08,-278.6 1064.08,-272.6 1064.08,-272.6 1064.08,-232.25 1064.08,-232.25 1064.08,-226.25 1070.08,-220.25 1076.08,-220.25 1076.08,-220.25 1224.88,-220.25 1224.88,-220.25 1230.88,-220.25 1236.88,-226.25 1236.88,-232.25 1236.88,-232.25 1236.88,-272.6 1236.88,-272.6 1236.88,-278.6 1230.88,-284.6 1224.88,-284.6"/>
<text xml:space="preserve" text-anchor="middle" x="1150.48" y="-264.3" font-family="Comic Sans MS" font-size="10.00">Computed Stats:</text>
<text xml:space="preserve" text-anchor="middle" x="1150.48" y="-250.05" font-family="Comic Sans MS" font-size="10.00">avg time, avg tok/s,</text>
<text xml:space="preserve" text-anchor="middle" x="1150.48" y="-235.8" font-family="Comic Sans MS" font-size="10.00">peak memory</text>
</g>
<!-- history&#45;&gt;stats -->
<g id="edge13" class="edge">
<title>history&#45;&gt;stats</title>
<path fill="none" stroke="#9c27b0" stroke-width="1.5" d="M1150.48,-383.41C1150.48,-358.63 1150.48,-324.43 1150.48,-297.19"/>
<polygon fill="#9c27b0" stroke="#9c27b0" stroke-width="1.5" points="1153.98,-297.49 1150.48,-287.49 1146.98,-297.49 1153.98,-297.49"/>
<text xml:space="preserve" text-anchor="middle" x="1140.73" y="-332.63" font-family="Comic Sans MS" font-size="9.00" fill="#2c3e50">compute</text>
</g>
<!-- statsview -->
<g id="node13" class="node">
<title>statsview</title>
<path fill="#ffe0b2" stroke="#2c3e50" stroke-width="2" d="M1529.7,-424.48C1529.7,-424.48 1395.3,-424.48 1395.3,-424.48 1389.3,-424.48 1383.3,-418.48 1383.3,-412.48 1383.3,-412.48 1383.3,-386.38 1383.3,-386.38 1383.3,-380.38 1389.3,-374.38 1395.3,-374.38 1395.3,-374.38 1529.7,-374.38 1529.7,-374.38 1535.7,-374.38 1541.7,-380.38 1541.7,-386.38 1541.7,-386.38 1541.7,-412.48 1541.7,-412.48 1541.7,-418.48 1535.7,-424.48 1529.7,-424.48"/>
<text xml:space="preserve" text-anchor="middle" x="1462.5" y="-404.18" font-family="Comic Sans MS" font-size="10.00">StatsView</text>
<text xml:space="preserve" text-anchor="middle" x="1462.5" y="-389.93" font-family="Comic Sans MS" font-size="10.00">Charts Framework</text>
</g>
<!-- history&#45;&gt;statsview -->
<g id="edge16" class="edge">
<title>history&#45;&gt;statsview</title>
<path fill="none" stroke="#ff9800" stroke-width="2" d="M1230.51,-412.09C1272.88,-409.77 1325.32,-406.89 1369.51,-404.47"/>
<polygon fill="#ff9800" stroke="#ff9800" stroke-width="2" points="1369.53,-407.97 1379.32,-403.93 1369.14,-400.99 1369.53,-407.97"/>
<text xml:space="preserve" text-anchor="middle" x="1309.85" y="-427.39" font-family="Comic Sans MS" font-size="9.00" fill="#2c3e50">historical</text>
<text xml:space="preserve" text-anchor="middle" x="1309.85" y="-413.89" font-family="Comic Sans MS" font-size="9.00" fill="#2c3e50">data</text>
</g>
<!-- metric -->
<g id="node11" class="node">
<title>metric</title>
<path fill="#ce93d8" stroke="#2c3e50" stroke-width="2" d="M1536.9,-234.6C1536.9,-234.6 1388.1,-234.6 1388.1,-234.6 1382.1,-234.6 1376.1,-228.6 1376.1,-222.6 1376.1,-222.6 1376.1,-182.25 1376.1,-182.25 1376.1,-176.25 1382.1,-170.25 1388.1,-170.25 1388.1,-170.25 1536.9,-170.25 1536.9,-170.25 1542.9,-170.25 1548.9,-176.25 1548.9,-182.25 1548.9,-182.25 1548.9,-222.6 1548.9,-222.6 1548.9,-228.6 1542.9,-234.6 1536.9,-234.6"/>
<text xml:space="preserve" text-anchor="middle" x="1462.5" y="-214.3" font-family="Comic Sans MS" font-size="10.00">GenerationMetrics</text>
<text xml:space="preserve" text-anchor="middle" x="1462.5" y="-200.05" font-family="Comic Sans MS" font-size="10.00">timestamp, tokens,</text>
<text xml:space="preserve" text-anchor="middle" x="1462.5" y="-185.8" font-family="Comic Sans MS" font-size="10.00">time, memory</text>
</g>
<!-- record&#45;&gt;metric -->
<g id="edge11" class="edge">
<title>record&#45;&gt;metric</title>
<path fill="none" stroke="#9c27b0" stroke-width="1.5" d="M1230.51,-159.96C1270.93,-167.39 1320.51,-176.5 1363.36,-184.38"/>
<polygon fill="#9c27b0" stroke="#9c27b0" stroke-width="1.5" points="1362.55,-187.79 1373.02,-186.16 1363.82,-180.91 1362.55,-187.79"/>
</g>
<!-- metric&#45;&gt;history -->
<g id="edge12" class="edge">
<title>metric&#45;&gt;history</title>
<path fill="none" stroke="#9c27b0" stroke-width="1.5" stroke-dasharray="5,2" d="M1413.69,-235.43C1358.59,-273.46 1268.09,-335.93 1209.14,-376.62"/>
<polygon fill="#9c27b0" stroke="#9c27b0" stroke-width="1.5" points="1207.35,-373.61 1201.11,-382.17 1211.32,-379.37 1207.35,-373.61"/>
<text xml:space="preserve" text-anchor="middle" x="1309.85" y="-327.19" font-family="Comic Sans MS" font-size="9.00" fill="#2c3e50">append</text>
</g>
<!-- stats&#45;&gt;statsview -->
<g id="edge17" class="edge">
<title>stats&#45;&gt;statsview</title>
<path fill="none" stroke="#ff9800" stroke-width="1.5" d="M1237.68,-236.35C1269.61,-234.67 1304.88,-238.22 1333.1,-254.93 1365.85,-274.31 1350.73,-300.37 1375.3,-329.43 1386.52,-342.69 1400.53,-355.29 1413.96,-366.05"/>
<polygon fill="#ff9800" stroke="#ff9800" stroke-width="1.5" points="1411.76,-368.78 1421.81,-372.15 1416.06,-363.25 1411.76,-368.78"/>
<text xml:space="preserve" text-anchor="middle" x="1309.85" y="-259.88" font-family="Comic Sans MS" font-size="9.00" fill="#2c3e50">aggregates</text>
</g>
<!-- charts -->
<g id="node14" class="node">
<title>charts</title>
<path fill="#ffcc80" stroke="#2c3e50" stroke-width="2" d="M1801.4,-449.48C1801.4,-449.48 1681.4,-449.48 1681.4,-449.48 1675.4,-449.48 1669.4,-443.48 1669.4,-437.48 1669.4,-437.48 1669.4,-411.38 1669.4,-411.38 1669.4,-405.38 1675.4,-399.38 1681.4,-399.38 1681.4,-399.38 1801.4,-399.38 1801.4,-399.38 1807.4,-399.38 1813.4,-405.38 1813.4,-411.38 1813.4,-411.38 1813.4,-437.48 1813.4,-437.48 1813.4,-443.48 1807.4,-449.48 1801.4,-449.48"/>
<text xml:space="preserve" text-anchor="middle" x="1741.4" y="-429.18" font-family="Comic Sans MS" font-size="10.00">Line/Bar/Gauge</text>
<text xml:space="preserve" text-anchor="middle" x="1741.4" y="-414.93" font-family="Comic Sans MS" font-size="10.00">Charts</text>
</g>
<!-- statsview&#45;&gt;charts -->
<g id="edge18" class="edge">
<title>statsview&#45;&gt;charts</title>
<path fill="none" stroke="#ff9800" stroke-width="1.5" d="M1542.48,-406.56C1578.1,-409.77 1620.2,-413.57 1656.39,-416.84"/>
<polygon fill="#ff9800" stroke="#ff9800" stroke-width="1.5" points="1655.89,-420.31 1666.16,-417.72 1656.52,-413.34 1655.89,-420.31"/>
<text xml:space="preserve" text-anchor="middle" x="1609.15" y="-418.37" font-family="Comic Sans MS" font-size="9.00" fill="#2c3e50">visualize</text>
</g>
</g>
</svg>
